<svg viewBox="0 0 20 20" xmlns="http://www.w3.org/2000/svg">
<path d="M13 6.99953V10.7495C13 11.3463 13.2371 11.9186 13.659 12.3405C14.081 12.7625 14.6533 12.9995 15.25 12.9995C15.8467 12.9995 16.419 12.7625 16.841 12.3405C17.2629 11.9186 17.5 11.3463 17.5 10.7495V9.99953C17.4999 8.3068 16.9272 6.66389 15.875 5.33793C14.8227 4.01197 13.3529 3.08095 11.7045 2.69626C10.056 2.31156 8.32595 2.49582 6.79552 3.21906C5.26508 3.9423 4.0243 5.162 3.27495 6.67982C2.5256 8.19765 2.31173 9.92433 2.66813 11.5791C3.02453 13.2339 3.93024 14.7195 5.23798 15.7942C6.54572 16.869 8.17858 17.4698 9.87106 17.4989C11.5635 17.528 13.2161 16.9837 14.56 15.9545M12.9167 10C12.9167 11.6108 11.6108 12.9167 10 12.9167C8.38917 12.9167 7.08333 11.6108 7.08333 10C7.08333 8.38917 8.38917 7.08333 10 7.08333C11.6108 7.08333 12.9167 8.38917 12.9167 10Z" stroke-width="1.5" stroke-linecap="round" stroke-linejoin="round"/>
</svg>
