<svg viewBox="0 0 26 20" fill="none" xmlns="http://www.w3.org/2000/svg">
<path fill-rule="evenodd" clip-rule="evenodd" d="M13 1.59961C7.40324 1.59961 2.92017 5.08278 1 9.99961C2.92017 14.9164 7.40324 18.3996 13 18.3996C18.5968 18.3996 23.0798 14.9164 25 9.99961C23.0798 5.08278 18.5968 1.59961 13 1.59961ZM13 15C15.7614 15 18 12.7614 18 10C18 7.23858 15.7614 5 13 5C10.2386 5 8 7.23858 8 10C8 12.7614 10.2386 15 13 15Z" fill="white"/>
<path d="M1 9.99961L0.0685124 9.63584C-0.0228375 9.86975 -0.0228375 10.1295 0.0685124 10.3634L1 9.99961ZM25 9.99961L25.9315 10.3634C26.0228 10.1295 26.0228 9.86975 25.9315 9.63584L25 9.99961ZM1.93149 10.3634C3.71701 5.79133 7.85537 2.59961 13 2.59961V0.599609C6.95111 0.599609 2.12332 4.37424 0.0685124 9.63584L1.93149 10.3634ZM13 17.3996C7.85537 17.3996 3.71701 14.2079 1.93149 9.63584L0.0685124 10.3634C2.12332 15.625 6.95111 19.3996 13 19.3996V17.3996ZM24.0685 9.63584C22.283 14.2079 18.1446 17.3996 13 17.3996V19.3996C19.0489 19.3996 23.8767 15.625 25.9315 10.3634L24.0685 9.63584ZM13 2.59961C18.1446 2.59961 22.283 5.79133 24.0685 10.3634L25.9315 9.63584C23.8767 4.37424 19.0489 0.599609 13 0.599609V2.59961ZM17 10C17 12.2091 15.2091 14 13 14V16C16.3137 16 19 13.3137 19 10H17ZM13 6C15.2091 6 17 7.79086 17 10H19C19 6.68629 16.3137 4 13 4V6ZM9 10C9 7.79086 10.7909 6 13 6V4C9.68629 4 7 6.68629 7 10H9ZM13 14C10.7909 14 9 12.2091 9 10H7C7 13.3137 9.68629 16 13 16V14Z" fill="white"/>
</svg>
