<svg viewBox="0 0 28 28" xmlns="http://www.w3.org/2000/svg">
<g clip-path="url(#clip0_401_3453)">
<path d="M14 16.8711C15.5857 16.8711 16.8711 15.5857 16.8711 14C16.8711 12.4143 15.5857 11.1289 14 11.1289C12.4143 11.1289 11.1289 12.4143 11.1289 14C11.1289 15.5857 12.4143 16.8711 14 16.8711Z" />
<path d="M14 0.328125C6.44924 0.328125 0.328125 6.44924 0.328125 14C0.328125 21.5508 6.44924 27.6719 14 27.6719C21.5508 27.6719 27.6719 21.5508 27.6719 14C27.6719 6.44924 21.5508 0.328125 14 0.328125ZM22.4469 17.4748C22.3813 18.7747 22.016 20.0564 21.0688 20.9936C20.1124 21.9397 18.8245 22.2922 17.5122 22.3572H10.4879C9.17536 22.2922 7.88769 21.9399 6.93126 20.9936C5.98396 20.0564 5.61876 18.7747 5.55313 17.4748V10.5252C5.61876 9.22534 5.98402 7.94358 6.93126 7.00634C7.88769 6.06025 9.17552 5.70773 10.4879 5.64282H17.5121C18.8246 5.70773 20.1123 6.06009 21.0687 7.00634C22.016 7.94358 22.3812 9.22534 22.4469 10.5252L22.4469 17.4748Z" />
<path d="M17.4232 7.22611C15.7123 7.17919 12.2877 7.17919 10.5768 7.22611C9.6864 7.25055 8.67704 7.4722 8.04266 8.14978C7.38346 8.8541 7.13436 9.70504 7.10909 10.657C7.06469 12.3278 7.10909 17.3426 7.10909 17.3426C7.13802 18.2945 7.38346 19.1455 8.04266 19.8498C8.67704 20.5276 9.6864 20.7491 10.5768 20.7735C12.2877 20.8204 15.7123 20.8204 17.4232 20.7735C18.3136 20.7491 19.3229 20.5274 19.9573 19.8498C20.6165 19.1455 20.8656 18.2946 20.8909 17.3426V10.657C20.8656 9.70504 20.6165 8.8541 19.9573 8.14978C19.3227 7.47198 18.3134 7.25055 17.4232 7.22611ZM13.9998 18.45C13.1196 18.45 12.2592 18.189 11.5274 17.7C10.7955 17.211 10.2252 16.516 9.88833 15.7028C9.5515 14.8897 9.46337 13.9949 9.63509 13.1316C9.8068 12.2684 10.2306 11.4754 10.853 10.853C11.4754 10.2307 12.2683 9.80684 13.1316 9.63513C13.9948 9.46341 14.8896 9.55154 15.7028 9.88837C16.516 10.2252 17.211 10.7956 17.7 11.5274C18.189 12.2592 18.45 13.1196 18.45 13.9998C18.45 15.1801 17.9811 16.312 17.1465 17.1466C16.312 17.9811 15.18 18.45 13.9998 18.45ZM18.4689 10.4682C18.2929 10.4682 18.1208 10.4159 17.9745 10.3181C17.8281 10.2203 17.7141 10.0813 17.6468 9.91862C17.5794 9.75598 17.5618 9.57703 17.5962 9.40439C17.6306 9.23176 17.7153 9.07319 17.8398 8.94873C17.9643 8.82428 18.1229 8.73954 18.2955 8.70521C18.4682 8.67089 18.6471 8.68852 18.8098 8.7559C18.9724 8.82327 19.1114 8.93735 19.2092 9.08371C19.307 9.23007 19.3591 9.40214 19.3591 9.57816C19.3591 9.69506 19.3361 9.81082 19.2914 9.91882C19.2466 10.0268 19.1811 10.1249 19.0984 10.2076C19.0157 10.2902 18.9176 10.3558 18.8096 10.4005C18.7015 10.4452 18.5858 10.4682 18.4689 10.4682Z" />
</g>
<defs>
<clipPath id="clip0_401_3453">
<rect width="28" height="28" fill="white"/>
</clipPath>
</defs>
</svg>
