<svg viewBox="0 0 208 46" fill="none" xmlns="http://www.w3.org/2000/svg">
<path fill-rule="evenodd" clip-rule="evenodd" d="M124.377 3.76524V10.5943H122.769V3.76524H120.594V2.31726H126.546V3.76524H124.377Z" fill="#6A6B6C"/>
<path fill-rule="evenodd" clip-rule="evenodd" d="M136.018 9.79309C135.457 10.3521 134.762 10.6619 133.802 10.6619C132.856 10.6619 132.14 10.3521 131.586 9.79309C130.877 9.09267 130.748 8.31817 130.742 7.13285H129.498V10.5945H127.87V2.31747H129.498V5.6916H130.742C130.762 4.56689 130.897 3.8126 131.586 3.12565C132.14 2.56666 132.856 2.25012 133.802 2.25012C134.762 2.25012 135.457 2.56666 136.018 3.12565C136.849 3.94729 136.869 4.88342 136.869 6.4661C136.869 8.0353 136.849 8.96471 136.018 9.79309ZM134.843 4.13587C134.606 3.86647 134.255 3.6981 133.802 3.6981C133.363 3.6981 132.998 3.86647 132.755 4.13587C132.451 4.48607 132.363 4.88342 132.363 6.4661C132.363 8.0353 132.451 8.4192 132.755 8.76941C132.998 9.0388 133.363 9.22064 133.802 9.22064C134.255 9.22064 134.606 9.0388 134.843 8.76941C135.147 8.4192 135.248 8.0353 135.248 6.4661C135.248 4.88342 135.147 4.48607 134.843 4.13587Z" fill="#6A6B6C"/>
<path fill-rule="evenodd" clip-rule="evenodd" d="M144.443 10.5943V5.77894L142.855 8.90389H141.754L140.16 5.77894V10.5943H138.545V2.31726H140.139L142.301 6.80263L144.47 2.31726H146.058V10.5943H144.443Z" fill="#6A6B6C"/>
<path fill-rule="evenodd" clip-rule="evenodd" d="M148.004 10.5943V2.31726H153.476V3.76524H149.625V5.70487H152.902V7.13937H149.625V9.15308H153.476V10.5943H148.004Z" fill="#6A6B6C"/>
<path fill-rule="evenodd" clip-rule="evenodd" d="M159.497 10.5943V7.13264H156.693V10.5943H155.065V2.31726H156.693V5.70487H159.497V2.31726H161.111V10.5943H159.497Z" fill="#6A6B6C"/>
<path fill-rule="evenodd" clip-rule="evenodd" d="M165.847 10.6619C164.895 10.6619 164.192 10.3521 163.624 9.79309C162.793 8.96471 162.78 8.0353 162.78 6.4661C162.78 4.88342 162.793 3.94729 163.624 3.12565C164.192 2.56666 164.895 2.25012 165.847 2.25012C167.395 2.25012 168.584 3.13911 168.888 4.86996H167.232C167.07 4.19648 166.651 3.6981 165.847 3.6981C165.408 3.6981 165.05 3.85974 164.807 4.12913C164.51 4.4726 164.401 4.88342 164.401 6.4661C164.401 8.0353 164.51 8.44613 164.807 8.79634C165.05 9.059 165.408 9.22064 165.847 9.22064C166.651 9.22064 167.09 8.72226 167.246 8.04878H168.888C168.584 9.77962 167.395 10.6619 165.847 10.6619Z" fill="#6A6B6C"/>
<path fill-rule="evenodd" clip-rule="evenodd" d="M170.32 2.31726H171.947V10.5937H170.32V2.31726ZM174.867 10.5943L171.955 6.26385L174.631 2.31726H176.57L173.78 6.1965L176.854 10.5943H174.867Z" fill="#6A6B6C"/>
<path fill-rule="evenodd" clip-rule="evenodd" d="M182.448 10.5943V5.28731L179.232 10.5943H177.779V2.31726H179.394V7.62427L182.623 2.31726H184.069V10.5943H182.448Z" fill="#6A6B6C"/>
<path fill-rule="evenodd" clip-rule="evenodd" d="M190.69 10.5947V5.28771L187.461 10.5947H186.015V2.31767H187.643V7.62468L190.866 2.31767H192.312V10.5947H190.69ZM189.177 1.87991C188.258 1.87991 187.339 1.47582 187.292 0.223145H188.427C188.46 0.734989 188.751 0.943767 189.177 0.943767C189.596 0.943767 189.886 0.734989 189.92 0.223145H191.062C191.014 1.47582 190.102 1.87991 189.177 1.87991Z" fill="#6A6B6C"/>
<path fill-rule="evenodd" clip-rule="evenodd" d="M127.106 23.2764V18.4543L125.525 21.5927H124.431L122.836 18.4543V23.2764H121.215V15.0061H122.816L124.978 19.478L127.133 15.0061H128.728V23.2764H127.106Z" fill="#6A6B6C"/>
<path fill-rule="evenodd" clip-rule="evenodd" d="M130.681 23.2764V15.0061H136.146V16.4406H132.295V18.387H135.572V19.8282H132.295V21.8352H136.146V23.2764H130.681Z" fill="#6A6B6C"/>
<path fill-rule="evenodd" clip-rule="evenodd" d="M143.099 25.1083V23.2764H138.498V25.1083H136.93V21.8352H137.714C138.403 20.7778 138.707 19.02 138.707 17.1141V15.0061H143.713V21.8352H144.659V25.1083H143.099ZM142.085 16.4406H140.261V17.6327C140.261 19.276 140.092 20.6835 139.525 21.8352H142.085V16.4406Z" fill="#6A6B6C"/>
<path fill-rule="evenodd" clip-rule="evenodd" d="M150.639 23.2764V17.9627L147.409 23.2764H145.963V15.0061H147.592V20.2997L150.814 15.0061H152.26V23.2764H150.639Z" fill="#6A6B6C"/>
<path fill-rule="evenodd" clip-rule="evenodd" d="M159.659 25.1083V23.2764H154.206V15.0061H155.828V21.8352H158.639V15.0061H160.253V21.8352H161.226V25.1083H159.659Z" fill="#6A6B6C"/>
<path fill-rule="evenodd" clip-rule="evenodd" d="M167.185 23.2764V17.9627L163.969 23.2764H162.516V15.0061H164.131V20.2997L167.361 15.0061H168.807V23.2764H167.185Z" fill="#6A6B6C"/>
<path fill-rule="evenodd" clip-rule="evenodd" d="M175.185 23.2764V19.8147H172.381V23.2764H170.753V15.0061H172.381V18.387H175.185V15.0061H176.806V23.2764H175.185Z" fill="#6A6B6C"/>
<path fill-rule="evenodd" clip-rule="evenodd" d="M181.536 23.3436C180.583 23.3436 179.881 23.0338 179.313 22.4748C178.482 21.6465 178.469 20.7171 178.469 19.1411C178.469 17.5585 178.482 16.6223 179.313 15.8007C179.881 15.2484 180.583 14.9319 181.536 14.9319C183.09 14.9319 184.272 15.8141 184.576 17.545H182.921C182.766 16.8715 182.347 16.3731 181.536 16.3731C181.097 16.3731 180.739 16.5348 180.495 16.8042C180.198 17.1476 180.09 17.5585 180.09 19.1411C180.09 20.7171 180.198 21.1279 180.495 21.4714C180.739 21.7408 181.097 21.9024 181.536 21.9024C182.347 21.9024 182.779 21.404 182.934 20.7238H184.576C184.272 22.4614 183.083 23.3436 181.536 23.3436Z" fill="#6A6B6C"/>
<path fill-rule="evenodd" clip-rule="evenodd" d="M186.008 15.0061H187.636V23.2744H186.008V15.0061ZM190.555 23.2764L187.65 18.9392L190.318 15.0061H192.257L189.467 18.8853L192.541 23.2764H190.555Z" fill="#6A6B6C"/>
<path fill-rule="evenodd" clip-rule="evenodd" d="M198.149 23.2764V17.9627L194.913 23.2764H193.467V15.0061H195.089V20.2997L198.318 15.0061H199.764V23.2764H198.149Z" fill="#6A6B6C"/>
<path fill-rule="evenodd" clip-rule="evenodd" d="M206.379 23.2765V17.9628L203.149 23.2765H201.703V15.0062H203.325V20.2997L206.554 15.0062H208V23.2765H206.379ZM204.865 14.5617C203.946 14.5617 203.027 14.1509 202.973 12.8982H204.122C204.156 13.4168 204.446 13.6188 204.865 13.6188C205.284 13.6188 205.575 13.4168 205.608 12.8982H206.75C206.703 14.1509 205.791 14.5617 204.865 14.5617Z" fill="#6A6B6C"/>
<path fill-rule="evenodd" clip-rule="evenodd" d="M124.033 34.5571C123.722 35.3047 123.154 35.9512 122.188 35.9512H121.188V34.5167H121.844C122.283 34.5167 122.553 34.3282 122.702 33.9914L122.952 33.4257L120.29 27.6809H121.979L123.722 31.6679L125.296 27.6809H126.978L124.033 34.5571Z" fill="#6A6B6C"/>
<path fill-rule="evenodd" clip-rule="evenodd" d="M132.424 35.9512V32.4895H129.613V35.9512H127.991V27.6809H129.613V31.0618H132.424V27.6809H134.038V35.9512H132.424Z" fill="#6A6B6C"/>
<path fill-rule="evenodd" clip-rule="evenodd" d="M140.66 35.9512V30.6442L137.437 35.9512H135.991V27.6809H137.606V32.9812L140.835 27.6809H142.281V35.9512H140.66Z" fill="#6A6B6C"/>
<path fill-rule="evenodd" clip-rule="evenodd" d="M149.727 32.1528C150.092 32.5367 150.24 33.0081 150.24 33.5873C150.24 35.0353 149.261 35.9512 147.7 35.9512H144.227V27.6809H147.565C149.126 27.6809 150.126 28.5699 150.126 29.964C150.126 30.752 149.788 31.3312 149.099 31.7151C149.423 31.8902 149.551 31.9844 149.727 32.1528ZM147.43 31.0281C148.099 31.0281 148.504 30.6712 148.504 30.0718C148.504 29.4791 148.099 29.1289 147.43 29.1289H145.856V31.0281H147.43ZM147.538 34.5167C148.2 34.5167 148.626 34.1194 148.626 33.493C148.626 32.86 148.2 32.4761 147.538 32.4761H145.856V34.5167H147.538Z" fill="#6A6B6C"/>
<path fill-rule="evenodd" clip-rule="evenodd" d="M151.909 35.9512V27.6809H157.382V29.1289H153.531V31.0618H156.801V32.503H153.531V34.5167H157.382V35.9512H151.909Z" fill="#6A6B6C"/>
<path fill-rule="evenodd" clip-rule="evenodd" d="M162.192 32.8398H160.584V35.9512H158.969V27.6809H162.192C163.908 27.6809 164.921 28.8595 164.921 30.2603C164.921 31.6679 163.908 32.8398 162.192 32.8398ZM162.104 29.1289H160.584V31.3918H162.104C162.834 31.3918 163.307 30.9405 163.307 30.2603C163.307 29.5869 162.834 29.1289 162.104 29.1289Z" fill="#6A6B6C"/>
<path fill-rule="evenodd" clip-rule="evenodd" d="M169.084 36.0252C168.131 36.0252 167.428 35.7086 166.854 35.1564C166.03 34.328 166.023 33.3986 166.023 31.8159C166.023 30.24 166.03 29.3106 166.854 28.4889C167.428 27.9232 168.131 27.6134 169.084 27.6134C170.631 27.6134 171.82 28.4957 172.124 30.2265H170.469C170.307 29.553 169.895 29.0546 169.084 29.0546C168.638 29.0546 168.28 29.2163 168.05 29.4789C167.746 29.8292 167.638 30.24 167.638 31.8159C167.638 33.3986 167.746 33.8027 168.05 34.1529C168.28 34.4223 168.638 34.5839 169.084 34.5839C169.895 34.5839 170.313 34.0855 170.482 33.4121H172.124C171.82 35.1429 170.624 36.0252 169.084 36.0252Z" fill="#6A6B6C"/>
<path fill-rule="evenodd" clip-rule="evenodd" d="M178.205 35.9512V30.6442L174.982 35.9512H173.536V27.6809H175.158V32.9812L178.38 27.6809H179.826V35.9512H178.205Z" fill="#6A6B6C"/>
<path fill-rule="evenodd" clip-rule="evenodd" d="M184.941 29.1289V35.9512H183.326V29.1289H181.157V27.6809H187.109V29.1289H184.941Z" fill="#6A6B6C"/>
<path fill-rule="evenodd" clip-rule="evenodd" d="M188.433 35.9512V27.6809H193.899V29.1289H190.055V31.0618H193.332V32.503H190.055V34.5167H193.899V35.9512H188.433Z" fill="#6A6B6C"/>
<path fill-rule="evenodd" clip-rule="evenodd" d="M198.663 29.1289V35.9512H197.055V29.1289H194.879V27.6809H200.839V29.1289H198.663Z" fill="#6A6B6C"/>
<path fill-rule="evenodd" clip-rule="evenodd" d="M78.6162 45.4269H65.7589L75.7853 24.0776L78.6162 45.4269Z" fill="#C6CBD4"/>
<path fill-rule="evenodd" clip-rule="evenodd" d="M75.7856 24.0776L64.8674 1.86621H59.3542L53.8749 20.892L48.3955 1.86621H0V14.7633H8.07377V45.4605H21.0121V14.7633H29.0927V45.4268H42.004V26.3539L47.4969 45.4605H60.2394L65.7255 26.3809V45.4268L75.7856 24.0776Z" fill="#B5B7B8"/>
<path fill-rule="evenodd" clip-rule="evenodd" d="M78.6233 3.53644L77.8531 1.86621H64.8674L75.7856 24.0776L78.6233 18.0162L82.0352 10.7831L78.6233 3.53644Z" fill="#D9061A"/>
<path fill-rule="evenodd" clip-rule="evenodd" d="M78.623 30.0043L78.0352 28.664L75.7853 24.0776L65.7589 45.4269H78.2581L81.9538 37.5405L78.623 30.0043Z" fill="#D9061A"/>
<path fill-rule="evenodd" clip-rule="evenodd" d="M88.2779 24.0779L82.035 10.7834L75.7854 24.0779L78.0353 28.6643L81.9539 37.5408L88.2779 24.0779Z" fill="#B8141C"/>
<path fill-rule="evenodd" clip-rule="evenodd" d="M90.5279 28.664L88.2781 24.0776L81.9541 37.5405L78.2584 45.4269H91.109L94.5277 37.7021L90.5279 28.664Z" fill="#B5B7B8"/>
<path fill-rule="evenodd" clip-rule="evenodd" d="M100.764 24.0779L94.5278 10.7834L88.2782 24.0779L90.528 28.6643L94.5278 37.7024L98.5072 28.6643L100.764 24.0779Z" fill="#D9061A"/>
<path fill-rule="evenodd" clip-rule="evenodd" d="M121.891 44.6657C121.695 44.8611 121.425 44.9823 121.093 44.9823C120.769 44.9823 120.485 44.8611 120.289 44.6657C119.992 44.3694 119.958 44.1135 119.958 43.3121C119.958 42.5173 119.992 42.2614 120.289 41.9651C120.485 41.7698 120.769 41.6486 121.093 41.6486C121.425 41.6486 121.695 41.7698 121.891 41.9651C122.195 42.2614 122.215 42.5173 122.215 43.3121C122.215 44.1135 122.195 44.3694 121.891 44.6657ZM121.722 42.12C121.539 41.9516 121.33 41.8708 121.093 41.8708C120.85 41.8708 120.634 41.9516 120.465 42.12C120.229 42.3624 120.215 42.6184 120.215 43.3121C120.215 44.0125 120.229 44.2751 120.465 44.5108C120.634 44.686 120.85 44.7668 121.093 44.7668C121.33 44.7668 121.539 44.686 121.722 44.5108C121.952 44.2751 121.965 44.0125 121.965 43.3121C121.965 42.6184 121.952 42.3624 121.722 42.12Z" fill="#6A6B6C"/>
<path fill-rule="evenodd" clip-rule="evenodd" d="M126.945 44.9555V41.8911H125.228V44.9555H124.978V41.6824H127.188V44.9555H126.945Z" fill="#6A6B6C"/>
<path fill-rule="evenodd" clip-rule="evenodd" d="M131.289 43.5614H130.33V44.9555H130.08V41.6824H131.289C131.863 41.6824 132.289 42.0258 132.289 42.6185C132.289 43.2179 131.863 43.5614 131.289 43.5614ZM131.262 41.8911H130.33V43.3459H131.262C131.715 43.3459 132.032 43.1169 132.032 42.6185C132.032 42.1269 131.715 41.8911 131.262 41.8911Z" fill="#6A6B6C"/>
<path fill-rule="evenodd" clip-rule="evenodd" d="M134.87 44.9555V41.6824H136.863V41.8911H135.12V43.191H136.606V43.4132H135.12V44.74H136.863V44.9555H134.87Z" fill="#6A6B6C"/>
<path fill-rule="evenodd" clip-rule="evenodd" d="M141.707 45.7771V44.9555H139.336V45.7771H139.086V44.74H139.383C139.694 44.2416 139.816 43.6961 139.816 42.8744V41.6824H141.559V44.74H141.951V45.7771H141.707ZM141.316 41.8911H140.045V43.0967C140.045 43.6893 139.951 44.2753 139.667 44.74H141.316V41.8911Z" fill="#6A6B6C"/>
<path fill-rule="evenodd" clip-rule="evenodd" d="M144.518 44.9555V41.6824H146.511V41.8911H144.775V43.191H146.254V43.4132H144.775V44.74H146.511V44.9555H144.518Z" fill="#6A6B6C"/>
<path fill-rule="evenodd" clip-rule="evenodd" d="M151.024 44.9555V41.8911H149.74V43.0832C149.74 44.4706 149.409 44.9555 148.801 44.9555H148.673V44.74H148.747C149.186 44.74 149.497 44.4369 149.497 42.9485V41.6824H151.274V44.9555H151.024Z" fill="#6A6B6C"/>
<path fill-rule="evenodd" clip-rule="evenodd" d="M155.943 44.9555V43.5614H155.01L154.247 44.9555H153.956L154.74 43.5412C154.274 43.4536 153.99 43.1101 153.99 42.6185C153.99 42.0528 154.382 41.6824 154.977 41.6824H156.186V44.9555H155.943ZM155.943 41.8911H155.01C154.524 41.8911 154.24 42.1605 154.24 42.6185C154.24 43.0832 154.524 43.3459 155.01 43.3459H155.943V41.8911Z" fill="#6A6B6C"/>
<path fill-rule="evenodd" clip-rule="evenodd" d="M160.841 44.9555V43.5614H159.922L159.152 44.9555H158.861L159.645 43.5412C159.186 43.4536 158.895 43.1101 158.895 42.6185C158.895 42.0528 159.287 41.6824 159.888 41.6824H161.091V44.9555H160.841ZM160.841 41.8911H159.915C159.436 41.8911 159.145 42.1605 159.145 42.6185C159.145 43.0832 159.436 43.3459 159.915 43.3459H160.841V41.8911Z" fill="#6A6B6C"/>
<path fill-rule="evenodd" clip-rule="evenodd" d="M168.239 44.9555H167.023V41.6824H169.03V41.8911H167.273V43.0697H168.239C168.847 43.0697 169.239 43.4401 169.239 44.0126C169.239 44.5783 168.847 44.9555 168.239 44.9555ZM168.212 43.2853H167.273V44.74H168.212C168.705 44.74 168.982 44.4706 168.982 44.0126C168.982 43.5479 168.705 43.2853 168.212 43.2853Z" fill="#6A6B6C"/>
<path fill-rule="evenodd" clip-rule="evenodd" d="M172.644 44.4571C172.509 44.7669 172.34 44.9555 172.023 44.9555H171.773V44.74H171.969C172.212 44.74 172.327 44.6255 172.428 44.3696L172.577 44.0261L171.482 41.6824H171.746L172.712 43.7432L173.57 41.6824H173.833L172.644 44.4571Z" fill="#6A6B6C"/>
<path fill-rule="evenodd" clip-rule="evenodd" d="M178.468 45.7771V44.9555H176.11V45.7771H175.86V44.74H176.164C176.468 44.2416 176.583 43.6961 176.583 42.8744V41.6824H178.326V44.74H178.718V45.7771H178.468ZM178.076 41.8911H176.826V43.0967C176.826 43.6893 176.711 44.2753 176.434 44.74H178.076V41.8911Z" fill="#6A6B6C"/>
<path fill-rule="evenodd" clip-rule="evenodd" d="M181.995 44.4571C181.867 44.7669 181.691 44.9555 181.38 44.9555H181.124V44.74H181.32C181.563 44.74 181.671 44.6255 181.786 44.3696L181.928 44.0261L180.833 41.6824H181.103L182.063 43.7432L182.921 41.6824H183.191L181.995 44.4571Z" fill="#6A6B6C"/>
<path fill-rule="evenodd" clip-rule="evenodd" d="M189.373 45.7771V44.9555H185.623V41.6824H185.88V44.74H187.305V41.6824H187.549V44.74H188.981V41.6824H189.224V44.74H189.616V45.7771H189.373Z" fill="#6A6B6C"/>
<path fill-rule="evenodd" clip-rule="evenodd" d="M192.204 44.9555V41.6824H194.19V41.8911H192.447V43.191H193.933V43.4132H192.447V44.74H194.19V44.9555H192.204Z" fill="#6A6B6C"/>
<path fill-rule="evenodd" clip-rule="evenodd" d="M196.832 44.9555V41.6824H198.831V41.8911H197.082V43.191H198.561V43.4132H197.082V44.74H198.831V44.9555H196.832Z" fill="#6A6B6C"/>
<path fill-rule="evenodd" clip-rule="evenodd" d="M94.5276 10.8168L100.764 24.1112L111.689 1.86621H98.7232L94.5276 10.8168Z" fill="#B5B7B8"/>
<path fill-rule="evenodd" clip-rule="evenodd" d="M88.2643 24.1112L94.5274 10.7831L90.629 1.86621H77.8528L88.2643 24.1112Z" fill="#B5B7B8"/>
</svg>
