<svg viewBox="0 0 56 56" fill="none" xmlns="http://www.w3.org/2000/svg">
<g opacity="0.5">
<path d="M18.6666 18.6667V14C18.6666 12.7624 19.1583 11.5754 20.0334 10.7002C20.9086 9.82504 22.0956 9.33337 23.3333 9.33337H32.6666C33.9043 9.33337 35.0912 9.82504 35.9664 10.7002C36.8416 11.5754 37.3333 12.7624 37.3333 14V18.6667M23.3333 32.6667H32.6666M27.9999 28V37.3334M13.9999 18.6667H41.9999C44.5772 18.6667 46.6666 20.756 46.6666 23.3334V42C46.6666 44.5774 44.5772 46.6667 41.9999 46.6667H13.9999C11.4226 46.6667 9.33325 44.5774 9.33325 42V23.3334C9.33325 20.756 11.4226 18.6667 13.9999 18.6667Z" stroke="white" stroke-width="2" stroke-linecap="round" stroke-linejoin="round"/>
</g>
</svg>
