<svg width="20" height="20" viewBox="0 0 20 20" fill="none" xmlns="http://www.w3.org/2000/svg">
<g clip-path="url(#clip0_249_10976)">
<path d="M15.9524 17.1426C15.9524 16.4851 16.4854 15.9521 17.1429 15.9521C17.8004 15.9521 18.3333 16.4851 18.3333 17.1426C18.3333 17.8001 17.8004 18.3331 17.1429 18.3331C16.4854 18.3331 15.9524 17.8001 15.9524 17.1426Z" fill="#525A5F" stroke="#525A5F" stroke-width="2" stroke-linecap="round" stroke-linejoin="round"/>
<path d="M8.80957 17.1426C8.80957 16.4851 9.34256 15.9521 10 15.9521C10.6575 15.9521 11.1905 16.4851 11.1905 17.1426C11.1905 17.8001 10.6575 18.3331 10 18.3331C9.34256 18.3331 8.80957 17.8001 8.80957 17.1426Z" fill="#525A5F" stroke="#525A5F" stroke-width="2" stroke-linecap="round" stroke-linejoin="round"/>
<path d="M1.66663 17.1426C1.66663 16.4851 2.19962 15.9521 2.8571 15.9521C3.51458 15.9521 4.04758 16.4851 4.04758 17.1426C4.04758 17.8001 3.51458 18.3331 2.8571 18.3331C2.19962 18.3331 1.66663 17.8001 1.66663 17.1426Z" fill="#525A5F" stroke="#525A5F" stroke-width="2" stroke-linecap="round" stroke-linejoin="round"/>
<path d="M15.9524 10C15.9524 9.34256 16.4854 8.80957 17.1429 8.80957C17.8004 8.80957 18.3333 9.34256 18.3333 10C18.3333 10.6575 17.8004 11.1905 17.1429 11.1905C16.4854 11.1905 15.9524 10.6575 15.9524 10Z" fill="#525A5F" stroke="#525A5F" stroke-width="2" stroke-linecap="round" stroke-linejoin="round"/>
<path d="M8.80957 10C8.80957 9.34256 9.34256 8.80957 10 8.80957C10.6575 8.80957 11.1905 9.34256 11.1905 10C11.1905 10.6575 10.6575 11.1905 10 11.1905C9.34256 11.1905 8.80957 10.6575 8.80957 10Z" fill="#525A5F" stroke="#525A5F" stroke-width="2" stroke-linecap="round" stroke-linejoin="round"/>
<path d="M1.66663 10C1.66663 9.34256 2.19962 8.80957 2.8571 8.80957C3.51458 8.80957 4.04758 9.34256 4.04758 10C4.04758 10.6575 3.51458 11.1905 2.8571 11.1905C2.19962 11.1905 1.66663 10.6575 1.66663 10Z" fill="#525A5F" stroke="#525A5F" stroke-width="2" stroke-linecap="round" stroke-linejoin="round"/>
<path d="M15.9524 2.85698C15.9524 2.1995 16.4854 1.6665 17.1429 1.6665C17.8004 1.6665 18.3333 2.1995 18.3333 2.85698C18.3333 3.51446 17.8004 4.04746 17.1429 4.04746C16.4854 4.04746 15.9524 3.51446 15.9524 2.85698Z" fill="#525A5F" stroke="#525A5F" stroke-width="2" stroke-linecap="round" stroke-linejoin="round"/>
<path d="M8.80957 2.85698C8.80957 2.1995 9.34256 1.6665 10 1.6665C10.6575 1.6665 11.1905 2.1995 11.1905 2.85698C11.1905 3.51446 10.6575 4.04746 10 4.04746C9.34256 4.04746 8.80957 3.51446 8.80957 2.85698Z" fill="#525A5F" stroke="#525A5F" stroke-width="2" stroke-linecap="round" stroke-linejoin="round"/>
<path d="M1.66663 2.85698C1.66663 2.1995 2.19962 1.6665 2.8571 1.6665C3.51458 1.6665 4.04758 2.1995 4.04758 2.85698C4.04758 3.51446 3.51458 4.04746 2.8571 4.04746C2.19962 4.04746 1.66663 3.51446 1.66663 2.85698Z" fill="#525A5F" stroke="#525A5F" stroke-width="2" stroke-linecap="round" stroke-linejoin="round"/>
</g>
<defs>
<clipPath id="clip0_249_10976">
<rect width="20" height="20" fill="white"/>
</clipPath>
</defs>
</svg>
