<svg width="101" height="101" viewBox="0 0 101 101" fill="none" xmlns="http://www.w3.org/2000/svg">
<path fill-rule="evenodd" clip-rule="evenodd" d="M5.91729 12.0464C0.625 19.3281 0.625 29.7243 0.625 50.5C0.625 71.2812 0.625 81.6719 5.91729 88.9536C7.62614 91.3055 9.69446 93.3739 12.0464 95.0827C19.3281 100.375 29.7243 100.375 50.5 100.375C71.2812 100.375 81.6719 100.375 88.9536 95.0827C91.3055 93.3739 93.3739 91.3055 95.0827 88.9536C100.375 81.6719 100.375 71.2757 100.375 50.5C100.375 29.7188 100.375 19.3281 95.0827 12.0464C93.3739 9.69446 91.3055 7.62614 88.9536 5.91729C81.6719 0.625 71.2757 0.625 50.5 0.625C29.7188 0.625 19.3281 0.625 12.0464 5.91729C9.69489 7.62446 7.62658 9.69644 5.91729 12.0464ZM81.3061 36.6514C81.6704 36.2442 81.9508 35.7693 82.1315 35.2537C82.3122 34.7382 82.3896 34.192 82.3592 33.6466C82.3289 33.1011 82.1914 32.567 81.9546 32.0746C81.7178 31.5823 81.3863 31.1414 80.9792 30.7772C80.572 30.413 80.0971 30.1325 79.5815 29.9518C79.0659 29.7711 78.5198 29.6937 77.9744 29.7241C77.4289 29.7545 76.8947 29.892 76.4024 30.1288C75.9101 30.3656 75.4692 30.697 75.105 31.1042L56.4351 51.9575C52.6502 56.1802 50.1065 59.012 47.9231 60.8463C45.8505 62.5864 44.6314 62.9688 43.5674 62.9688C42.5034 62.9688 41.2842 62.5864 39.2061 60.8463C37.0282 59.0175 34.4846 56.1802 30.6996 51.9575L25.8784 46.582C25.1331 45.8014 24.1134 45.3413 23.035 45.2991C21.9566 45.2568 20.904 45.6356 20.0999 46.3555C19.2959 47.0754 18.8033 48.0798 18.7265 49.1563C18.6497 50.2328 18.9946 51.297 19.6883 52.1237L24.7146 57.7319C28.2336 61.6665 31.1762 64.9527 33.8584 67.2081C36.7012 69.591 39.7658 71.2812 43.5674 71.2812C47.369 71.2812 50.4335 69.5966 53.2764 67.2081C55.9585 64.9527 58.9012 61.6665 62.4201 57.7319L81.3061 36.6514Z" fill="url(#paint0_linear_180_9302)"/>
<defs>
<linearGradient id="paint0_linear_180_9302" x1="-4" y1="-1" x2="103" y2="113" gradientUnits="userSpaceOnUse">
<stop stop-color="#F5686A"/>
<stop offset="1" stop-color="#D81618"/>
</linearGradient>
</defs>
</svg>
