<svg viewBox="0 0 24 24" xmlns="http://www.w3.org/2000/svg">
<path d="M2 5H4.5L6.132 9.897C6.53021 11.0919 7.29434 12.1312 8.31612 12.8676C9.3379 13.604 10.5655 14.0002 11.825 14H14.5C15.9587 14 17.3576 13.4205 18.3891 12.3891C19.4205 11.3576 20 9.95869 20 8.5C20 7.04131 19.4205 5.64236 18.3891 4.61091C17.3576 3.57946 15.9587 3 14.5 3H14V9M6 9H20M9 17L10 14M16 14L17 17M10 19C10 20.1046 9.10457 21 8 21C6.89543 21 6 20.1046 6 19C6 17.8954 6.89543 17 8 17C9.10457 17 10 17.8954 10 19ZM20 19C20 20.1046 19.1046 21 18 21C16.8954 21 16 20.1046 16 19C16 17.8954 16.8954 17 18 17C19.1046 17 20 17.8954 20 19Z" stroke-width="1.5" stroke-linecap="round" stroke-linejoin="round"/>
</svg>
