<svg viewBox="0 0 56 56" fill="none" xmlns="http://www.w3.org/2000/svg">
<g opacity="0.4">
<path opacity="0.4" d="M27.9999 12.8333C25.4939 11.4659 21.9729 9.33328 18.6666 9.33328C13.7666 9.33095 9.33325 12.2429 9.33325 20.9999C9.33325 32.4309 11.7973 40.6233 15.5656 45.5863C16.9026 47.3503 20.1623 46.802 21.5553 45.0356C22.4839 43.8573 23.4663 41.6779 24.4999 38.4999C25.1813 36.7009 26.5813 34.9906 27.9999 34.9999C29.4046 35.0093 30.8233 36.7196 31.4999 38.4999C32.5336 41.6779 33.5159 43.8549 34.4446 45.0333C35.8376 46.8043 39.0973 47.3503 40.4343 45.5863C44.2026 40.6233 46.6666 32.4333 46.6666 20.9999C46.6666 12.2733 42.2146 9.34728 37.3333 9.33328C34.0129 9.32395 30.5199 11.4589 27.9999 12.8333Z" stroke="#1B1C1D" stroke-width="2" stroke-linecap="round" stroke-linejoin="round"/>
</g>
</svg>
