<svg width="80" height="80" viewBox="0 0 80 80" fill="none" xmlns="http://www.w3.org/2000/svg">
<g clip-path="url(#clip0_573_1858)">
<path d="M77.4099 26.4329L70.4042 15.25C70.1668 14.8708 69.8564 14.5425 69.4912 14.2841C69.126 14.0256 68.7131 13.8422 68.2765 13.7444C67.84 13.6466 67.3883 13.6364 66.9477 13.7144C66.5072 13.7923 66.0865 13.9569 65.7099 14.1986L55.2114 20.94C52.9599 22.3857 49.9999 20.7686 49.9999 18.0929V3.38286C49.9999 2.48567 49.6435 1.62522 49.0091 0.990816C48.3747 0.356407 47.5143 0 46.6171 0L33.3828 0C32.4856 0 31.6252 0.356407 30.9907 0.990816C30.3563 1.62522 29.9999 2.48567 29.9999 3.38286V18.1743C29.9999 20.8329 27.0742 22.4529 24.8199 21.0414L14.2771 14.4371C13.9006 14.2013 13.4813 14.0419 13.0432 13.9681C12.6051 13.8943 12.1567 13.9076 11.7237 14.0071C11.2907 14.1066 10.8816 14.2904 10.5196 14.548C10.1577 14.8056 9.85002 15.132 9.61422 15.5086L2.5885 26.7229C2.35266 27.0994 2.19329 27.5186 2.1195 27.9568C2.04571 28.3949 2.05893 28.8432 2.15843 29.2762C2.25792 29.7092 2.44173 30.1184 2.69936 30.4803C2.95699 30.8423 3.28339 31.1499 3.65993 31.3857L16.3556 39.3386C18.4714 40.6643 18.4714 43.7471 16.3556 45.0729L3.65993 53.0257C2.89978 53.5022 2.35991 54.261 2.159 55.1354C1.95809 56.0097 2.11258 56.9281 2.5885 57.6886L9.61422 68.9029C10.0907 69.663 10.8495 70.2029 11.7239 70.4038C12.5982 70.6047 13.5166 70.4502 14.2771 69.9743L24.8199 63.37C27.0742 61.9586 29.9999 63.5786 29.9999 66.2371V76.6171C29.9999 77.5143 30.3563 78.3748 30.9907 79.0092C31.6252 79.6436 32.4856 80 33.3828 80H46.6171C47.5143 80 48.3747 79.6436 49.0091 79.0092C49.6435 78.3748 49.9999 77.5143 49.9999 76.6171V66.2286C49.9999 63.5457 52.9742 61.93 55.2242 63.39L65.7042 70.19C67.2899 71.2186 69.4099 70.7486 70.4128 69.1486L77.4099 57.98C77.6458 57.6035 77.8051 57.1842 77.8789 56.7461C77.9527 56.308 77.9395 55.8596 77.84 55.4267C77.7405 54.9937 77.5567 54.5845 77.2991 54.2226C77.0415 53.8606 76.715 53.5529 76.3385 53.3171L63.1799 45.0743C61.0642 43.7486 61.0642 40.6657 63.1799 39.34L76.3385 31.0971C76.7152 30.8613 77.0418 30.5536 77.2996 30.1915C77.5573 29.8295 77.7412 29.4202 77.8407 28.987C77.9402 28.5538 77.9534 28.1053 77.8795 27.6671C77.8055 27.2288 77.646 26.8094 77.4099 26.4329Z" fill="#14A085"/>
</g>
<defs>
<clipPath id="clip0_573_1858">
<rect width="80" height="80" fill="white"/>
</clipPath>
</defs>
</svg>
