<svg width="80" height="80" viewBox="0 0 80 80" fill="none" xmlns="http://www.w3.org/2000/svg">
<g clip-path="url(#clip0_573_1945)">
<path d="M42.3191 39.6559L23.3705 34.1528C19.2575 32.9583 16.8916 28.6556 18.0861 24.5426L23.5892 5.59405C24.7838 1.48108 29.0864 -0.884859 33.1994 0.309672L52.148 5.8128C56.2609 7.00733 58.6269 11.31 57.4323 15.423L51.9292 34.3715C50.7347 38.4845 46.432 40.8505 42.3191 39.6559Z" fill="#F26666"/>
<path d="M52.1478 5.8128L45.2439 3.8078C48.7181 5.37858 50.6001 9.30358 49.5059 13.0714L43.9795 32.0997C42.8761 35.8992 39.1312 38.2116 35.3232 37.6242L42.319 39.6559C46.432 40.8505 50.7346 38.4845 51.9292 34.3716L57.4323 15.423C58.6268 11.31 56.2609 7.00733 52.1478 5.8128Z" fill="#DD5B5B"/>
<path d="M32.6915 76.7485L13.2131 79.8993C8.9851 80.5832 5.00323 77.7101 4.31932 73.4821L1.16854 54.0037C0.484635 49.7757 3.35776 45.7938 7.58573 45.1099L27.064 41.9591C31.292 41.2752 35.2739 44.1483 35.9578 48.3763L39.1085 67.8546C39.7926 72.0827 36.9195 76.0646 32.6915 76.7485Z" fill="#73E7E6"/>
<path d="M39.1086 67.8547L35.9578 48.3765C35.2739 44.1485 31.292 41.2754 27.064 41.9593L19.7864 43.1365C23.6792 42.996 27.1586 45.7713 27.7967 49.7162L30.9809 69.4021C31.5508 72.9244 29.6765 76.276 26.6073 77.7326L32.6912 76.7485C36.9193 76.0646 39.7925 72.0827 39.1086 67.8547Z" fill="#65D1CB"/>
<path d="M71.177 77.8724H51.4454C47.1625 77.8724 43.6904 74.4004 43.6904 70.1174V50.3859C43.6904 46.1029 47.1625 42.6309 51.4454 42.6309H71.177C75.46 42.6309 78.932 46.1029 78.932 50.3859V70.1174C78.932 74.4004 75.46 77.8724 71.177 77.8724Z" fill="#FF9F40"/>
<path d="M71.1767 42.6309H64.8582C68.3158 43.4516 70.8886 46.5573 70.8886 50.266V70.2373C70.8886 73.9459 68.3158 77.0516 64.8582 77.8724H71.1767C75.4597 77.8724 78.9318 74.4004 78.9318 70.1174V50.3859C78.9318 46.1029 75.4597 42.6309 71.1767 42.6309Z" fill="#F49138"/>
<path d="M36.9844 28.3225C36.8065 28.3225 36.6173 28.2948 36.4373 28.2425C35.8177 28.0625 35.2329 27.5867 35.4129 26.967L38.7332 15.5347L38.0812 15.9964L38.0732 16.0008C37.9343 16.0768 37.7786 16.117 37.6202 16.1179C37.5484 16.1179 37.4787 16.1089 37.419 16.0915C37.1613 16.0167 36.958 15.8228 36.8466 15.5456C36.7466 15.292 36.7328 15.0126 36.8074 14.7504C36.9183 14.3684 37.2362 14.029 37.6008 13.9017L40.4315 12.4168C40.5835 12.3331 40.7358 12.2915 40.8941 12.2915C40.991 12.2915 41.0898 12.3065 41.1958 12.3373C41.7529 12.499 42.254 13.0186 42.0923 13.5756L37.986 27.7142C37.8751 28.095 37.5007 28.3225 36.9844 28.3225ZM16.864 69.8393C16.3702 69.8393 15.8029 69.5765 15.7241 69.0892L15.3796 66.9595C15.0754 65.0781 16.7441 63.3889 18.3582 61.7554C19.9255 60.169 21.4058 58.6708 21.149 57.0823C21.0018 56.1728 20.2969 55.255 19.0543 55.255C18.9049 55.255 18.7487 55.2679 18.5894 55.2937C17.9893 55.3908 17.5102 55.6409 17.2041 56.0172C16.8665 56.4322 16.7498 56.9787 16.8569 57.6414C16.9393 58.1511 16.5054 58.7623 15.6363 58.9029C15.5421 58.9181 15.4515 58.9259 15.3665 58.9259C14.7223 58.9259 14.326 58.495 14.1883 57.645C13.8154 55.3392 15.5373 53.2764 18.1937 52.8465C18.4942 52.7978 18.7981 52.7732 19.1026 52.7729C21.5329 52.7729 23.4138 54.3064 23.783 56.5887C24.2373 59.3976 22.0523 61.5251 20.2963 63.2345C19.0273 64.4701 17.9312 65.5372 18.0902 66.5211L18.1996 67.1965L24.4954 66.1781C24.5316 66.1722 24.5683 66.1693 24.6052 66.1693C25.0763 66.1693 25.5183 66.6206 25.6116 67.1968C25.7141 67.8315 25.3658 68.4809 24.8805 68.5595L17.0648 69.8237C17.0012 69.834 16.9335 69.8392 16.864 69.8393ZM61.2334 68.6079C59.6221 68.6079 58.284 68.1436 57.3637 67.2651C56.5971 66.5334 56.1574 65.5375 56.1574 64.5328C56.1574 63.6861 56.4965 63.3711 57.408 63.3711C58.404 63.3711 58.7921 63.6656 58.7921 64.4215C58.7921 65.3047 59.5538 66.1956 61.2555 66.1956C63.0291 66.1956 63.7859 65.419 63.7859 63.5987V63.1762C63.7859 61.6533 62.951 60.9129 61.2335 60.9129C60.6679 60.9129 60.3165 60.4934 60.3165 59.8181C60.3165 59.129 60.6679 58.7009 61.2335 58.7009C62.5252 58.7009 63.3855 58.3122 63.3855 56.4153C63.3855 54.9423 62.7493 54.2854 61.3224 54.2854C59.5437 54.2854 59.1704 55.1897 59.1704 55.9483C59.1704 56.6895 58.7421 57.0654 57.8976 57.0654C56.811 57.0654 56.5135 56.7965 56.5135 55.8148C56.5135 54.359 57.531 51.8954 61.3446 51.8954C64.4176 51.8954 65.9757 53.2815 65.9757 56.015C65.9757 57.7104 65.3916 59.0614 64.3971 59.7097C65.7516 60.3533 66.4649 61.5451 66.4649 63.1761V63.5986C66.4648 65.4695 65.7852 68.6079 61.2334 68.6079Z" fill="white"/>
</g>
<defs>
<clipPath id="clip0_573_1945">
<rect width="80" height="80" fill="white"/>
</clipPath>
</defs>
</svg>
