<svg width="80" height="80" viewBox="0 0 80 80" fill="none" xmlns="http://www.w3.org/2000/svg">
<g clip-path="url(#clip0_573_1624)">
<path d="M51.0111 30.3007C50.7381 30.3013 50.471 30.2208 50.2438 30.0693C50.0166 29.9178 49.8395 29.7023 49.735 29.45C49.6305 29.1978 49.6033 28.9201 49.6569 28.6524C49.7105 28.3846 49.8424 28.1388 50.0359 27.9462L56.9421 21.0414C57.0702 20.9133 57.2222 20.8117 57.3896 20.7424C57.5569 20.6731 57.7362 20.6374 57.9173 20.6374C58.0984 20.6374 58.2778 20.6731 58.4451 20.7424C58.6124 20.8117 58.7644 20.9133 58.8925 21.0414C59.0205 21.1694 59.1221 21.3215 59.1914 21.4888C59.2607 21.6561 59.2964 21.8354 59.2964 22.0165C59.2964 22.1977 59.2607 22.377 59.1914 22.5443C59.1221 22.7116 59.0205 22.8637 58.8925 22.9917L51.9863 29.8965C51.8583 30.0247 51.7063 30.1264 51.5389 30.1957C51.3716 30.265 51.1922 30.3007 51.0111 30.3007ZM69.4883 11.8234C69.2153 11.824 68.9482 11.7435 68.721 11.5921C68.4938 11.4406 68.3167 11.2251 68.2122 10.9728C68.1078 10.7205 68.0806 10.4429 68.1342 10.1751C68.1877 9.90739 68.3197 9.6616 68.5132 9.46896L70.8277 7.15448C70.9557 7.02642 71.1077 6.92483 71.2751 6.85553C71.4424 6.78622 71.6217 6.75055 71.8028 6.75055C71.9839 6.75055 72.1633 6.78622 72.3306 6.85553C72.4979 6.92483 72.6499 7.02642 72.778 7.15448C72.9061 7.28254 73.0076 7.43457 73.077 7.60189C73.1463 7.76921 73.1819 7.94854 73.1819 8.12965C73.1819 8.31076 73.1463 8.49009 73.077 8.65741C73.0076 8.82473 72.9061 8.97676 72.778 9.10482L70.4635 11.4193C70.3356 11.5476 70.1836 11.6493 70.0163 11.7187C69.8489 11.788 69.6695 11.8236 69.4883 11.8234Z" fill="#556080"/>
<path d="M1.54765 71.3738L44.1035 28.8179C44.4745 28.447 44.9337 28.1766 45.438 28.032C45.9424 27.8875 46.4751 27.8736 46.9863 27.9917L53.8028 29.5641C54.1119 29.6357 54.3962 29.7886 54.6262 30.0071C54.8562 30.2255 55.0236 30.5015 55.111 30.8065C55.1984 31.1114 55.2026 31.4342 55.1232 31.7413C55.0438 32.0485 54.8836 32.3287 54.6594 32.5531L8.69386 78.52C7.74622 79.4677 6.46093 80 5.12076 80C3.78058 80 2.4953 79.4677 1.54765 78.52C0.600009 77.5724 0.067627 76.2871 0.067627 74.9469C0.067627 73.6067 0.600009 72.3214 1.54765 71.3738Z" fill="#57D8AB"/>
<path d="M11.3739 77.2193C11.1089 77.2195 10.8495 77.1434 10.6267 77C10.4039 76.8567 10.227 76.6522 10.1173 76.411L5.65113 66.5848C5.57614 66.42 5.53436 66.242 5.52815 66.061C5.52195 65.88 5.55146 65.6996 5.61498 65.53C5.67851 65.3605 5.77482 65.2051 5.89841 65.0727C6.02199 64.9403 6.17044 64.8336 6.33527 64.7586C6.5001 64.6836 6.67809 64.6418 6.85907 64.6356C7.04005 64.6294 7.22049 64.6589 7.39007 64.7225C7.55964 64.786 7.71505 64.8823 7.84741 65.0059C7.97977 65.1295 8.08649 65.2779 8.16148 65.4428L12.6277 75.269C12.7236 75.4789 12.7652 75.7096 12.7487 75.9398C12.7322 76.17 12.6582 76.3924 12.5334 76.5865C12.4086 76.7806 12.237 76.9403 12.0344 77.0509C11.8318 77.1615 11.6047 77.2194 11.3739 77.2193ZM16.7339 71.8607C16.4689 71.8609 16.2095 71.7848 15.9867 71.6414C15.7639 71.4981 15.587 71.2936 15.4773 71.0524L11.0111 61.2276C10.9361 61.0628 10.8944 60.8848 10.8882 60.7038C10.882 60.5228 10.9115 60.3424 10.975 60.1728C11.0385 60.0032 11.1348 59.8478 11.2584 59.7155C11.382 59.5831 11.5304 59.4764 11.6953 59.4014C11.8601 59.3264 12.0381 59.2846 12.2191 59.2784C12.4001 59.2722 12.5805 59.3017 12.7501 59.3652C12.9196 59.4288 13.075 59.5251 13.2074 59.6487C13.3398 59.7722 13.4465 59.9207 13.5215 60.0855L17.9877 69.9103C18.0836 70.1203 18.1252 70.3509 18.1087 70.5812C18.0922 70.8114 18.0182 71.0337 17.8934 71.2279C17.7686 71.422 17.597 71.5817 17.3944 71.6923C17.1918 71.8028 16.9647 71.8608 16.7339 71.8607ZM22.0939 66.5007C21.8289 66.5009 21.5695 66.4248 21.3467 66.2814C21.1239 66.1381 20.947 65.9336 20.8373 65.6924L16.3711 55.8662C16.2961 55.7014 16.2544 55.5234 16.2482 55.3424C16.242 55.1614 16.2715 54.981 16.335 54.8114C16.3985 54.6418 16.4948 54.4864 16.6184 54.3541C16.742 54.2217 16.8904 54.115 17.0553 54.04C17.2201 53.965 17.3981 53.9232 17.5791 53.917C17.7601 53.9108 17.9405 53.9403 18.1101 54.0039C18.2796 54.0674 18.4351 54.1637 18.5674 54.2873C18.6998 54.4109 18.8065 54.5593 18.8815 54.7241L23.3477 64.5503C23.4436 64.7603 23.4852 64.9909 23.4687 65.2212C23.4522 65.4514 23.3782 65.6737 23.2534 65.8679C23.1286 66.062 22.957 66.2217 22.7544 66.3323C22.5518 66.4428 22.3247 66.5008 22.0939 66.5007Z" fill="#556080"/>
<path d="M63.702 25.4869L69.0579 30.8428C69.5702 31.3551 70.1784 31.7615 70.8478 32.0388C71.5172 32.3161 72.2347 32.4588 72.9593 32.4588C73.6838 32.4588 74.4013 32.3161 75.0707 32.0388C75.7401 31.7615 76.3483 31.3551 76.8606 30.8428L78.3158 29.3876C78.8282 28.8753 79.2346 28.267 79.5119 27.5976C79.7892 26.9282 79.9319 26.2108 79.9319 25.4862C79.9319 24.7617 79.7892 24.0442 79.5119 23.3748C79.2346 22.7054 78.8282 22.0972 78.3158 21.5848L72.96 16.229L63.702 25.4869ZM49.0882 10.8731L54.4441 16.229L63.702 6.97104L58.3462 1.61518C57.8338 1.10282 57.2256 0.696402 56.5562 0.419117C55.8868 0.141832 55.1693 -0.00088501 54.4448 -0.00088501C53.7202 -0.00088501 53.0028 0.141832 52.3334 0.419117C51.664 0.696402 51.0557 1.10282 50.5434 1.61518L49.0882 3.07035C48.5759 3.58268 48.1695 4.19091 47.8922 4.86031C47.6149 5.52971 47.4722 6.24717 47.4722 6.97173C47.4722 7.69629 47.6149 8.41375 47.8922 9.08315C48.1695 9.75255 48.5759 10.3608 49.0882 10.8731Z" fill="#E7ECED"/>
<path d="M54.4456 16.2303L63.7021 6.97241L62.5449 5.81517L63.7021 4.65793L75.2746 16.2303L74.1173 17.3876L72.9601 16.2303L63.7021 25.4869L64.8594 26.6441L63.7021 27.8014L52.1311 16.2303L53.2883 15.0731L54.4456 16.2303Z" fill="#AFB6BB"/>
</g>
<defs>
<clipPath id="clip0_573_1624">
<rect width="80" height="80" fill="white"/>
</clipPath>
</defs>
</svg>
