<svg width="80" height="80" viewBox="0 0 80 80" fill="none" xmlns="http://www.w3.org/2000/svg">
<g clip-path="url(#clip0_573_1875)">
<path d="M56.5518 4.13793V12.4138H24.8277V4.13793H9.65527V80H70.3449V4.13793H56.5518Z" fill="#3E465B"/>
<path d="M24.8276 0H56.5518V12.4138H24.8276V0Z" fill="#A1C8EC"/>
<path d="M56.5517 9.65517V12.4138H24.8275V9.65517H15.1724V74.4828H64.8275V9.65517H56.5517Z" fill="white"/>
<path d="M51.0348 6.89655H30.3451C29.9793 6.89655 29.6285 6.75123 29.3698 6.49256C29.1111 6.23389 28.9658 5.88306 28.9658 5.51724C28.9658 5.15143 29.1111 4.80059 29.3698 4.54192C29.6285 4.28325 29.9793 4.13793 30.3451 4.13793H51.0348C51.4006 4.13793 51.7514 4.28325 52.0101 4.54192C52.2688 4.80059 52.4141 5.15143 52.4141 5.51724C52.4141 5.88306 52.2688 6.23389 52.0101 6.49256C51.7514 6.75123 51.4006 6.89655 51.0348 6.89655Z" fill="#3E465B"/>
<path d="M26.8964 28.9655C29.5626 28.9655 31.724 26.8041 31.724 24.1379C31.724 21.4717 29.5626 19.3103 26.8964 19.3103C24.2302 19.3103 22.0688 21.4717 22.0688 24.1379C22.0688 26.8041 24.2302 28.9655 26.8964 28.9655Z" fill="#DD352E"/>
<path d="M26.8964 46.8966C29.5626 46.8966 31.724 44.7352 31.724 42.069C31.724 39.4028 29.5626 37.2414 26.8964 37.2414C24.2302 37.2414 22.0688 39.4028 22.0688 42.069C22.0688 44.7352 24.2302 46.8966 26.8964 46.8966Z" fill="#DD352E"/>
<path d="M26.8964 64.8276C29.5626 64.8276 31.724 62.6662 31.724 60C31.724 57.3338 29.5626 55.1724 26.8964 55.1724C24.2302 55.1724 22.0688 57.3338 22.0688 60C22.0688 62.6662 24.2302 64.8276 26.8964 64.8276Z" fill="#DD352E"/>
<path d="M57.9313 23.4483H37.2416C36.8758 23.4483 36.525 23.303 36.2663 23.0443C36.0076 22.7856 35.8623 22.4348 35.8623 22.069C35.8623 21.7031 36.0076 21.3523 36.2663 21.0936C36.525 20.835 36.8758 20.6897 37.2416 20.6897H57.9313C58.2971 20.6897 58.6479 20.835 58.9066 21.0936C59.1653 21.3523 59.3106 21.7031 59.3106 22.069C59.3106 22.4348 59.1653 22.7856 58.9066 23.0443C58.6479 23.303 58.2971 23.4483 57.9313 23.4483ZM57.9313 28.9655H37.2416C36.8758 28.9655 36.525 28.8202 36.2663 28.5615C36.0076 28.3029 35.8623 27.952 35.8623 27.5862C35.8623 27.2204 36.0076 26.8696 36.2663 26.6109C36.525 26.3522 36.8758 26.2069 37.2416 26.2069H57.9313C58.2971 26.2069 58.6479 26.3522 58.9066 26.6109C59.1653 26.8696 59.3106 27.2204 59.3106 27.5862C59.3106 27.952 59.1653 28.3029 58.9066 28.5615C58.6479 28.8202 58.2971 28.9655 57.9313 28.9655ZM57.9313 41.3793H37.2416C36.8758 41.3793 36.525 41.234 36.2663 40.9753C36.0076 40.7167 35.8623 40.3658 35.8623 40C35.8623 39.6342 36.0076 39.2833 36.2663 39.0247C36.525 38.766 36.8758 38.6207 37.2416 38.6207H57.9313C58.2971 38.6207 58.6479 38.766 58.9066 39.0247C59.1653 39.2833 59.3106 39.6342 59.3106 40C59.3106 40.3658 59.1653 40.7167 58.9066 40.9753C58.6479 41.234 58.2971 41.3793 57.9313 41.3793ZM57.9313 46.8966H37.2416C36.8758 46.8966 36.525 46.7512 36.2663 46.4926C36.0076 46.2339 35.8623 45.8831 35.8623 45.5172C35.8623 45.1514 36.0076 44.8006 36.2663 44.5419C36.525 44.2833 36.8758 44.1379 37.2416 44.1379H57.9313C58.2971 44.1379 58.6479 44.2833 58.9066 44.5419C59.1653 44.8006 59.3106 45.1514 59.3106 45.5172C59.3106 45.8831 59.1653 46.2339 58.9066 46.4926C58.6479 46.7512 58.2971 46.8966 57.9313 46.8966ZM57.9313 59.3103H37.2416C36.8758 59.3103 36.525 59.165 36.2663 58.9064C36.0076 58.6477 35.8623 58.2969 35.8623 57.931C35.8623 57.5652 36.0076 57.2144 36.2663 56.9557C36.525 56.697 36.8758 56.5517 37.2416 56.5517H57.9313C58.2971 56.5517 58.6479 56.697 58.9066 56.9557C59.1653 57.2144 59.3106 57.5652 59.3106 57.931C59.3106 58.2969 59.1653 58.6477 58.9066 58.9064C58.6479 59.165 58.2971 59.3103 57.9313 59.3103ZM57.9313 64.8276H37.2416C36.8758 64.8276 36.525 64.6823 36.2663 64.4236C36.0076 64.1649 35.8623 63.8141 35.8623 63.4483C35.8623 63.0825 36.0076 62.7316 36.2663 62.473C36.525 62.2143 36.8758 62.069 37.2416 62.069H57.9313C58.2971 62.069 58.6479 62.2143 58.9066 62.473C59.1653 62.7316 59.3106 63.0825 59.3106 63.4483C59.3106 63.8141 59.1653 64.1649 58.9066 64.4236C58.6479 64.6823 58.2971 64.8276 57.9313 64.8276Z" fill="#839594"/>
</g>
<defs>
<clipPath id="clip0_573_1875">
<rect width="80" height="80" fill="white"/>
</clipPath>
</defs>
</svg>
