<svg width="80" height="80" viewBox="0 0 80 80" fill="none" xmlns="http://www.w3.org/2000/svg">
<g clip-path="url(#clip0_573_1731)">
<path d="M24.5188 24.2693L6.43754 42.3505C-2.1465 50.9345 -2.1465 64.9797 6.43754 73.5623C15.0216 82.1464 29.0667 82.1464 37.6493 73.5623L55.7306 55.4811L24.5188 24.2693Z" fill="#DD352E"/>
<path d="M55.7581 55.4549L73.5635 37.6509C82.1461 29.0668 82.1461 15.0217 73.5635 6.43907C64.9794 -2.14497 50.9343 -2.14497 42.3517 6.43907L24.5449 24.2417L55.7581 55.4549Z" fill="#EBBA16"/>
<path d="M30.41 30.1069L6.80837 53.7085C6.4204 54.0967 6.20251 54.6231 6.20264 55.1719C6.20277 55.7207 6.4209 56.247 6.80906 56.6349C7.19722 57.0229 7.7236 57.2408 8.27241 57.2407C8.82122 57.2405 9.34749 57.0224 9.73547 56.6342L33.3371 33.0326L30.41 30.1069Z" fill="#F46767"/>
<path d="M33.3329 33.034L55.2545 11.1139C55.4521 10.923 55.6097 10.6947 55.7181 10.4422C55.8266 10.1898 55.8837 9.9183 55.8861 9.64356C55.8884 9.36883 55.8361 9.09637 55.732 8.84208C55.628 8.58779 55.4744 8.35677 55.2801 8.1625C55.0858 7.96823 54.8548 7.81459 54.6005 7.71055C54.3462 7.60652 54.0738 7.55416 53.799 7.55655C53.5243 7.55894 53.2528 7.61602 53.0004 7.72446C52.7479 7.8329 52.5196 7.99053 52.3287 8.18815L30.4072 30.1083L33.3329 33.034Z" fill="#FCD770"/>
</g>
<defs>
<clipPath id="clip0_573_1731">
<rect width="80" height="80" fill="white"/>
</clipPath>
</defs>
</svg>
