<svg width="80" height="80" viewBox="0 0 80 80" fill="none" xmlns="http://www.w3.org/2000/svg">
<g clip-path="url(#clip0_573_1740)">
<path d="M12.4372 68.9655C14.8828 56.9269 20.6897 45.5172 20.6897 45.5172L1.62621 28.7103C0.547301 32.3765 -0.000340979 36.1784 1.59278e-07 40C1.59278e-07 51.4028 4.78207 61.6786 12.4372 68.9655ZM42.1462 0.0593109L61.4152 18.869C64.1325 21.522 66.1074 24.8406 67.1432 28.4944C68.179 32.1481 68.2394 36.0094 67.3186 39.6938L66.2069 44.1379L67.32 69.1917C75.1172 61.8938 80 51.5228 80 40C80 18.629 63.2386 1.17379 42.1462 0.0593109Z" fill="white"/>
<path d="M40 80C50.5669 80 60.1697 75.8952 67.3214 69.2028L66.2069 44.1379L67.3186 39.6938C68.2396 36.0094 68.1792 32.1481 67.1434 28.4943C66.1076 24.8405 64.1327 21.5219 61.4152 18.869L42.1462 0.0593103C41.4315 0.0201337 40.7158 0.00035628 40 0C21.8304 0 6.5007 12.1186 1.62622 28.7103L20.6897 45.5172C20.6897 45.5172 14.8814 56.931 12.4359 68.971C19.611 75.8 29.3117 80 40 80Z" fill="#FBCE9D"/>
<path d="M39.378 9.66897C38.474 8.64315 37.3581 7.82569 36.1074 7.27299C34.8568 6.72028 33.5011 6.4455 32.1339 6.46759C28.8884 6.52828 25.5905 5.59173 22.7463 3.90483C18.312 6.03397 14.3071 8.96033 10.9312 12.5379C13.5256 15.731 14.8194 19.7421 14.7422 23.8593C14.7206 25.2264 14.9955 26.582 15.5482 27.8326C16.1009 29.0832 16.9181 30.1991 17.9436 31.1035C21.2912 34.0869 26.3822 34.2993 29.8015 31.5862C31.15 30.5239 32.1598 29.0917 32.7077 27.4648C32.9476 26.7617 33.3456 26.123 33.8709 25.5977C34.3962 25.0723 35.0349 24.6744 35.7381 24.4345C37.365 23.8866 38.7971 22.8768 39.8594 21.5283C42.5739 18.1076 42.3615 13.0152 39.378 9.66897ZM51.636 49.7159C49.9311 49.5134 48.2042 49.812 46.6663 50.5752C45.9994 50.9033 45.2661 51.0739 44.5229 51.0739C43.7796 51.0739 43.0463 50.9033 42.3794 50.5752C40.8415 49.812 39.1146 49.5134 37.4098 49.7159C33.0746 50.2152 29.6249 53.9669 29.367 58.4428C29.2812 59.8073 29.4922 61.1743 29.9856 62.4494C30.479 63.7245 31.243 64.8776 32.2249 65.829C35.6001 69.0814 37.6953 73.4897 37.6953 78.2441V79.9297C42.3278 80.1995 46.9719 79.6604 51.4194 78.3366V78.2428C51.4194 73.4883 53.4456 69.0786 56.8208 65.8276C57.8028 64.8762 58.5669 63.7232 59.0603 62.4481C59.5536 61.1729 59.7647 59.806 59.6787 58.4414C59.4208 53.9669 55.9712 50.2152 51.636 49.7159Z" fill="#F7F2D5"/>
<path d="M44.5228 45.5172C49.8553 45.5172 54.178 41.1945 54.178 35.8621C54.178 30.5297 49.8553 26.2069 44.5228 26.2069C39.1904 26.2069 34.8677 30.5297 34.8677 35.8621C34.8677 41.1945 39.1904 45.5172 44.5228 45.5172Z" fill="white"/>
</g>
<defs>
<clipPath id="clip0_573_1740">
<rect width="80" height="80" fill="white"/>
</clipPath>
</defs>
</svg>
