<svg width="80" height="80" viewBox="0 0 80 80" fill="none" xmlns="http://www.w3.org/2000/svg">
<g clip-path="url(#clip0_573_1693)">
<path d="M59.3105 55.1724C60.0722 55.1724 60.6898 54.5549 60.6898 53.7931C60.6898 53.0313 60.0722 52.4138 59.3105 52.4138C58.5487 52.4138 57.9312 53.0313 57.9312 53.7931C57.9312 54.5549 58.5487 55.1724 59.3105 55.1724Z" fill="#E092AC"/>
<path d="M62.0693 78.6207C62.831 78.6207 63.4486 78.0031 63.4486 77.2414C63.4486 76.4796 62.831 75.8621 62.0693 75.8621C61.3075 75.8621 60.6899 76.4796 60.6899 77.2414C60.6899 78.0031 61.3075 78.6207 62.0693 78.6207Z" fill="#E092AC"/>
<path d="M27.5863 67.5862C28.3481 67.5862 28.9657 66.9687 28.9657 66.2069C28.9657 65.4451 28.3481 64.8276 27.5863 64.8276C26.8246 64.8276 26.207 65.4451 26.207 66.2069C26.207 66.9687 26.8246 67.5862 27.5863 67.5862Z" fill="#E092AC"/>
<path d="M49.6552 59.3103C50.417 59.3103 51.0345 58.6928 51.0345 57.931C51.0345 57.1693 50.417 56.5517 49.6552 56.5517C48.8934 56.5517 48.2759 57.1693 48.2759 57.931C48.2759 58.6928 48.8934 59.3103 49.6552 59.3103Z" fill="#BC939F"/>
<path d="M70.3451 66.2069C71.1069 66.2069 71.7244 65.5894 71.7244 64.8276C71.7244 64.0658 71.1069 63.4483 70.3451 63.4483C69.5834 63.4483 68.9658 64.0658 68.9658 64.8276C68.9658 65.5894 69.5834 66.2069 70.3451 66.2069Z" fill="#BC939F"/>
<path d="M19.3105 78.6207C20.0722 78.6207 20.6898 78.0031 20.6898 77.2414C20.6898 76.4796 20.0722 75.8621 19.3105 75.8621C18.5487 75.8621 17.9312 76.4796 17.9312 77.2414C17.9312 78.0031 18.5487 78.6207 19.3105 78.6207Z" fill="#BC939F"/>
<path d="M24.1173 55.4262L3.63597 34.9448C2.48323 33.7921 1.56882 32.4236 0.944958 30.9175C0.321097 29.4114 0 27.7971 0 26.1669C0 24.5367 0.321097 22.9224 0.944958 21.4163C1.56882 19.9102 2.48323 18.5417 3.63597 17.389C4.7887 16.2362 6.15719 15.3218 7.66331 14.6979C9.16943 14.0741 10.7837 13.753 12.4139 13.753C14.0441 13.753 15.6584 14.0741 17.1645 14.6979C18.6706 15.3218 20.0391 16.2362 21.1918 17.389L41.6732 37.8703L24.1173 55.4262Z" fill="#6F5198"/>
<path d="M55.883 43.0524L76.3644 22.571C77.5171 21.4183 78.4315 20.0498 79.0554 18.5437C79.6793 17.0376 80.0004 15.4233 80.0004 13.7931C80.0004 12.1629 79.6793 10.5486 79.0554 9.04252C78.4315 7.5364 77.5171 6.16791 76.3644 5.01518C75.2117 3.86244 73.8432 2.94803 72.337 2.32417C70.8309 1.70031 69.2167 1.37921 67.5865 1.37921C65.9562 1.37921 64.342 1.70031 62.8359 2.32417C61.3297 2.94803 59.9613 3.86244 58.8085 5.01518L38.3271 25.4966L55.883 43.0524Z" fill="#A6B45E"/>
<path d="M48.2761 52.4138C50.5614 52.4138 52.414 50.5612 52.414 48.2759C52.414 45.9906 50.5614 44.1379 48.2761 44.1379C45.9908 44.1379 44.1382 45.9906 44.1382 48.2759C44.1382 50.5612 45.9908 52.4138 48.2761 52.4138Z" fill="#BC939F"/>
<path d="M38.6208 63.4483C40.9062 63.4483 42.7588 61.5957 42.7588 59.3104C42.7588 57.025 40.9062 55.1724 38.6208 55.1724C36.3355 55.1724 34.4829 57.025 34.4829 59.3104C34.4829 61.5957 36.3355 63.4483 38.6208 63.4483Z" fill="#E092AC"/>
<path d="M52.4138 71.7241C54.6991 71.7241 56.5517 69.8715 56.5517 67.5862C56.5517 65.3009 54.6991 63.4483 52.4138 63.4483C50.1285 63.4483 48.2759 65.3009 48.2759 67.5862C48.2759 69.8715 50.1285 71.7241 52.4138 71.7241Z" fill="#E092AC"/>
<path d="M38.6208 78.6207C40.9062 78.6207 42.7588 76.7681 42.7588 74.4828C42.7588 72.1975 40.9062 70.3448 38.6208 70.3448C36.3355 70.3448 34.4829 72.1975 34.4829 74.4828C34.4829 76.7681 36.3355 78.6207 38.6208 78.6207Z" fill="#BC939F"/>
<path d="M56.5519 33.1035C56.2788 33.1041 56.0117 33.0235 55.7845 32.8721C55.5573 32.7206 55.3803 32.5051 55.2758 32.2528C55.1713 32.0005 55.1441 31.7229 55.1977 31.4552C55.2513 31.1874 55.3832 30.9416 55.5767 30.749L70.7491 15.5766C70.8772 15.4485 71.0292 15.3469 71.1965 15.2776C71.3638 15.2083 71.5432 15.1726 71.7243 15.1726C71.9054 15.1726 72.0847 15.2083 72.252 15.2776C72.4194 15.3469 72.5714 15.4485 72.6995 15.5766C72.8275 15.7046 72.9291 15.8567 72.9984 16.024C73.0677 16.1913 73.1034 16.3706 73.1034 16.5517C73.1034 16.7328 73.0677 16.9122 72.9984 17.0795C72.9291 17.2468 72.8275 17.3989 72.6995 17.5269L57.527 32.6993C57.3991 32.8276 57.2471 32.9293 57.0798 32.9987C56.9124 33.068 56.733 33.1037 56.5519 33.1035Z" fill="#DCF23B"/>
<path d="M32.4139 40.6897C32.2328 40.6899 32.0534 40.6543 31.886 40.5849C31.7187 40.5155 31.5667 40.4138 31.4388 40.2855L14.1974 23.0442C14.0693 22.9161 13.9677 22.7641 13.8984 22.5967C13.8291 22.4294 13.7935 22.2501 13.7935 22.069C13.7935 21.8879 13.8291 21.7085 13.8984 21.5412C13.9677 21.3739 14.0693 21.2219 14.1974 21.0938C14.3254 20.9657 14.4775 20.8642 14.6448 20.7949C14.8121 20.7256 14.9915 20.6899 15.1726 20.6899C15.3537 20.6899 15.533 20.7256 15.7003 20.7949C15.8676 20.8642 16.0197 20.9657 16.1477 21.0938L33.3891 38.3352C33.5826 38.5278 33.7146 38.7736 33.7681 39.0414C33.8217 39.3091 33.7945 39.5867 33.69 39.839C33.5856 40.0913 33.4085 40.3068 33.1813 40.4583C32.9541 40.6097 32.687 40.6903 32.4139 40.6897Z" fill="#9B6AEA"/>
</g>
<defs>
<clipPath id="clip0_573_1693">
<rect width="80" height="80" fill="white"/>
</clipPath>
</defs>
</svg>
