<svg width="80" height="80" viewBox="0 0 80 80" fill="none" xmlns="http://www.w3.org/2000/svg">
<g clip-path="url(#clip0_573_1864)">
<path d="M40 77.9413H17.3333L16 68.608H40V77.9413Z" fill="#FBCE9D"/>
<path d="M62.6668 77.9413H40.0001V68.608H64.0001L62.6668 77.9413ZM60.6095 8.74533C59.8146 8.57025 58.9921 8.56196 58.1939 8.72101C57.3957 8.88005 56.6392 9.20296 55.9721 9.66933C55.7313 9.84237 55.4433 9.93773 55.1468 9.94266H46.7015C45.9255 9.94266 45.3228 9.296 45.3335 8.52C45.3601 6.49066 44.9241 4.68533 46.6668 3.636C47.4347 3.17344 48.1618 2.64619 48.8401 2.06H31.1521C31.8321 2.644 32.5615 3.172 33.3335 3.63733C35.0748 4.68666 34.6401 6.492 34.6668 8.52C34.6721 8.70362 34.6408 8.88646 34.5746 9.05781C34.5084 9.22917 34.4087 9.3856 34.2813 9.51796C34.1539 9.65031 34.0014 9.75592 33.8327 9.82862C33.664 9.90132 33.4825 9.93963 33.2988 9.94133H24.8535C24.5561 9.94133 24.2735 9.83733 24.0281 9.668C23.3608 9.20222 22.6043 8.87966 21.8062 8.72063C21.0081 8.56161 20.1857 8.56956 19.3908 8.744C16.9175 9.272 14.9508 11.3853 14.7068 13.9373L14.7095 13.94H65.2895L65.2921 13.9373C65.0495 11.3853 63.0828 9.27333 60.6095 8.74533Z" fill="#F7B563"/>
<path d="M0 13.9413H80V68.608H0V13.9413Z" fill="#556080"/>
<path d="M23.6961 46.24L11.7094 31.6493C12.2118 31.2798 12.6205 30.7975 12.9025 30.2413C13.1846 29.685 13.3322 29.0703 13.3334 28.4467C13.3334 27.1373 12.6961 25.9867 11.7241 25.2573L11.7281 25.2547L19.7281 14.7493C19.8989 14.5157 19.9871 14.2319 19.9787 13.9427H16.9921L9.60673 23.64C9.43606 23.8747 9.34792 24.1593 9.35607 24.4493L9.3334 24.4467C8.28531 24.4645 7.28612 24.8931 6.55081 25.6402C5.8155 26.3873 5.40284 27.3932 5.40161 28.4414C5.40039 29.4897 5.8107 30.4965 6.54427 31.2453C7.27783 31.9941 8.27602 32.425 9.32407 32.4453C9.32407 32.744 9.40407 33.044 9.60807 33.292L21.6361 47.9307C21.8646 48.1896 22.1847 48.3497 22.5289 48.3774C22.8731 48.4051 23.2146 48.2981 23.4816 48.079C23.7485 47.8599 23.9201 47.5458 23.9601 47.2028C24.0001 46.8598 23.9054 46.5146 23.6961 46.24ZM74.6667 28.4467C74.6667 27.3858 74.2453 26.3684 73.4952 25.6182C72.745 24.8681 71.7276 24.4467 70.6667 24.4467L70.6534 24.448C70.6581 24.1227 70.5428 23.807 70.3294 23.5613L61.7827 13.9413H58.6801C58.6801 14.256 58.7787 14.5733 59.0041 14.8267L68.2734 25.26C67.7761 25.6295 67.3718 26.1099 67.0929 26.6632C66.8139 27.2164 66.668 27.8271 66.6667 28.4467C66.6667 29.7627 67.3107 30.92 68.2907 31.6493L56.3041 46.24C56.0795 46.5132 55.9727 46.8644 56.0071 47.2163C56.0415 47.5682 56.2142 47.8921 56.4874 48.1167C56.7606 48.3412 57.1118 48.448 57.4637 48.4137C57.8157 48.3793 58.1395 48.2065 58.3641 47.9333L70.3921 33.2947C70.5835 33.0547 70.6841 32.7549 70.6761 32.448C71.7353 32.4448 72.7501 32.0219 73.4982 31.2719C74.2462 30.5219 74.6664 29.5059 74.6667 28.4467Z" fill="#7383BF"/>
<path d="M62.1734 53.8267C60.9334 51.932 57.1494 50.9707 55.176 51.284C53.0054 51.628 50.8014 51.4027 49.42 49.6933L48.6747 49.032C48.0188 48.7525 47.313 48.6088 46.6 48.6093H41.3334V41.9427H49.664C50.0177 41.9427 50.3568 41.8022 50.6068 41.5521C50.8569 41.3021 50.9974 40.9629 50.9974 40.6093C50.9974 40.2557 50.8569 39.9166 50.6068 39.6665C50.3568 39.4165 50.0177 39.276 49.664 39.276H41.3334V36.6093H52.3307C52.6843 36.6093 53.0235 36.4689 53.2735 36.2188C53.5236 35.9688 53.664 35.6296 53.664 35.276C53.664 34.9224 53.5236 34.5832 53.2735 34.3332C53.0235 34.0831 52.6843 33.9427 52.3307 33.9427H41.3334V31.276H57.664C58.0177 31.276 58.3568 31.1355 58.6068 30.8855C58.8569 30.6354 58.9974 30.2963 58.9974 29.9427C58.9974 29.589 58.8569 29.2499 58.6068 28.9999C58.3568 28.7498 58.0177 28.6093 57.664 28.6093H41.3334V25.9427H57.664C58.0177 25.9427 58.3568 25.8022 58.6068 25.5521C58.8569 25.3021 58.9974 24.9629 58.9974 24.6093C58.9974 24.2557 58.8569 23.9166 58.6068 23.6665C58.3568 23.4165 58.0177 23.276 57.664 23.276H41.3334V20.6093H52.3307C52.6843 20.6093 53.0235 20.4688 53.2735 20.2188C53.5236 19.9688 53.664 19.6296 53.664 19.276C53.664 18.9224 53.5236 18.5832 53.2735 18.3332C53.0235 18.0831 52.6843 17.9427 52.3307 17.9427H41.3334V13.9427H38.6667V17.9427H28.3307C27.9771 17.9427 27.6379 18.0831 27.3879 18.3332C27.1378 18.5832 26.9974 18.9224 26.9974 19.276C26.9974 19.6296 27.1378 19.9688 27.3879 20.2188C27.6379 20.4688 27.9771 20.6093 28.3307 20.6093H38.6667V23.276H22.9974C22.6437 23.276 22.3046 23.4165 22.0546 23.6665C21.8045 23.9166 21.664 24.2557 21.664 24.6093C21.664 24.9629 21.8045 25.3021 22.0546 25.5521C22.3046 25.8022 22.6437 25.9427 22.9974 25.9427H38.6667V28.6093H22.9974C22.6437 28.6093 22.3046 28.7498 22.0546 28.9999C21.8045 29.2499 21.664 29.589 21.664 29.9427C21.664 30.2963 21.8045 30.6354 22.0546 30.8855C22.3046 31.1355 22.6437 31.276 22.9974 31.276H38.6667V33.9427H28.3307C27.9771 33.9427 27.6379 34.0831 27.3879 34.3332C27.1378 34.5832 26.9974 34.9224 26.9974 35.276C26.9974 35.6296 27.1378 35.9688 27.3879 36.2188C27.6379 36.4689 27.9771 36.6093 28.3307 36.6093H38.6667V39.276H30.9974C30.6437 39.276 30.3046 39.4165 30.0546 39.6665C29.8045 39.9166 29.664 40.2557 29.664 40.6093C29.664 40.9629 29.8045 41.3021 30.0546 41.5521C30.3046 41.8022 30.6437 41.9427 30.9974 41.9427H38.6667V48.6093H34.6667C33.604 48.6093 32.6147 48.672 31.7814 49.2133L30.7014 49.8613C29.3027 51.248 27.2774 51.9027 25.372 51.3973C23.256 50.8373 19.4374 51.5907 18.0854 53.6587C16.7814 55.652 17.2414 58.756 18.9254 60.44L28.3614 68.6093H38.04C38.1552 68.4075 38.2568 68.1981 38.344 67.9827C38.4832 67.6364 38.7093 67.3318 39.0006 67.0985C39.2919 66.8652 39.6384 66.7109 40.0067 66.6507C40.748 66.7813 41.3867 67.264 41.6694 67.9827C41.7534 68.1973 41.86 68.4053 41.9747 68.6093H51.7014L61.3334 60.6093C63.1334 58.8093 63.5667 55.956 62.1734 53.8267ZM29.3334 63.2747C28.2725 63.2747 27.2551 62.8532 26.5049 62.1031C25.7548 61.3529 25.3334 60.3355 25.3334 59.2747C25.3334 58.2138 25.7548 57.1964 26.5049 56.4462C27.2551 55.6961 28.2725 55.2747 29.3334 55.2747C30.3942 55.2747 31.4117 55.6961 32.1618 56.4462C32.9119 57.1964 33.3334 58.2138 33.3334 59.2747C33.3334 60.3355 32.9119 61.3529 32.1618 62.1031C31.4117 62.8532 30.3942 63.2747 29.3334 63.2747ZM50.5987 63.2747C49.5378 63.2747 48.5204 62.8532 47.7703 62.1031C47.0201 61.3529 46.5987 60.3355 46.5987 59.2747C46.5987 58.2138 47.0201 57.1964 47.7703 56.4462C48.5204 55.6961 49.5378 55.2747 50.5987 55.2747C51.6596 55.2747 52.677 55.6961 53.4271 56.4462C54.1773 57.1964 54.5987 58.2138 54.5987 59.2747C54.5987 60.3355 54.1773 61.3529 53.4271 62.1031C52.677 62.8532 51.6596 63.2747 50.5987 63.2747Z" fill="#7383BF"/>
<path d="M77.3333 16.608V65.9413H2.66667V16.608H77.3333ZM80 13.9413H0V68.608H80V13.9413Z" fill="#3E465B"/>
</g>
<defs>
<clipPath id="clip0_573_1864">
<rect width="80" height="80" fill="white"/>
</clipPath>
</defs>
</svg>
