<svg width="80" height="80" viewBox="0 0 80 80" fill="none" xmlns="http://www.w3.org/2000/svg">
<g clip-path="url(#clip0_573_1888)">
<path d="M38.2523 15.2855C39.2371 16.7241 41.2413 16.7352 42.2468 15.3103C45.6164 10.5297 51.0689 7.42207 57.222 7.42207C67.4537 7.42207 74.822 16.1752 75.7489 26.6055C75.7489 26.6055 76.2495 29.1959 75.1489 33.8566C73.6496 40.2055 70.1282 45.8469 65.3778 50.1504L40.2371 72.5793L15.5213 50.149C10.7709 45.8455 7.24956 40.2041 5.75025 33.8552C4.64956 29.1931 5.15025 26.6041 5.15025 26.6041C6.07714 16.1738 13.4454 7.42069 23.6771 7.42069C29.8206 7.42069 34.9875 10.5172 38.2523 15.2855Z" fill="#C5411E"/>
<path d="M34.4828 53.269C34.4538 53.269 34.4248 53.269 34.3959 53.2662C34.1357 53.2497 33.8856 53.1599 33.6744 53.0071C33.4633 52.8542 33.2997 52.6447 33.2028 52.4028L26.1131 34.6772L20.5628 46.6221C20.4515 46.8605 20.2746 47.0623 20.0528 47.2037C19.831 47.3452 19.5734 47.4204 19.3103 47.4207H1.37931C1.01349 47.4207 0.662662 47.2754 0.403991 47.0167C0.14532 46.758 0 46.4072 0 46.0414C0 45.6756 0.14532 45.3247 0.403991 45.0661C0.662662 44.8074 1.01349 44.6621 1.37931 44.6621H18.4303L24.9545 30.6193C25.0654 30.373 25.2475 30.1654 25.4773 30.0233C25.7071 29.8813 25.9742 29.8112 26.2441 29.8221C26.7931 29.8372 27.2828 30.1779 27.4869 30.6883L34.6855 48.6841L40.1738 38.8055C40.2914 38.5935 40.4628 38.4162 40.6709 38.2917C40.8789 38.1673 41.1162 38.0999 41.3586 38.0966C41.9007 38.1145 42.3103 38.3462 42.5641 38.7697L44.8924 42.6814L49.6841 19.8814C49.8221 19.2303 50.3586 18.7379 51.0676 18.7862C51.731 18.8028 52.291 19.291 52.3959 19.9476L56.3476 44.6607H78.6207C78.9865 44.6607 79.3373 44.806 79.596 45.0647C79.8547 45.3234 80 45.6742 80 46.04C80 46.4058 79.8547 46.7567 79.596 47.0153C79.3373 47.274 78.9865 47.4193 78.6207 47.4193H55.1724C54.8445 47.4192 54.5273 47.3022 54.2778 47.0894C54.0283 46.8765 53.8629 46.5818 53.811 46.2579L50.851 27.749L46.8676 46.7076C46.8104 46.9792 46.6727 47.2273 46.4724 47.4194C46.2721 47.6116 46.0186 47.7389 45.7448 47.7848C45.471 47.8309 45.1896 47.7929 44.9378 47.676C44.6859 47.559 44.4753 47.3686 44.3338 47.1297L41.4234 42.24L35.691 52.5586C35.5708 52.7736 35.3955 52.9527 35.1832 53.0776C34.9708 53.2024 34.7291 53.2685 34.4828 53.269Z" fill="#F7E6A1"/>
</g>
<defs>
<clipPath id="clip0_573_1888">
<rect width="80" height="80" fill="white"/>
</clipPath>
</defs>
</svg>
