<svg width="80" height="80" viewBox="0 0 80 80" fill="none" xmlns="http://www.w3.org/2000/svg">
<g clip-path="url(#clip0_573_1613)">
<path d="M67.7681 23.0508C73.759 23.0508 78.6156 18.1943 78.6156 12.2034C78.6156 6.21251 73.759 1.35593 67.7681 1.35593C61.7772 1.35593 56.9207 6.21251 56.9207 12.2034C56.9207 18.1943 61.7772 23.0508 67.7681 23.0508Z" fill="#E7ECED"/>
<path d="M63.7004 22.2549C64.9922 22.7805 66.3736 23.0508 67.7682 23.0508C68.2279 23.0508 68.6794 23.0129 69.1242 22.9573V1.44949C68.6746 1.39021 68.2217 1.35896 67.7682 1.35593C66.3736 1.35595 64.9922 1.62624 63.7004 2.15187V22.2549Z" fill="white"/>
<path d="M50.1398 31.1878C49.8714 31.1884 49.6088 31.1092 49.3855 30.9603C49.1621 30.8114 48.988 30.5996 48.8853 30.3516C48.7826 30.1036 48.7559 29.8306 48.8086 29.5674C48.8612 29.3042 48.9909 29.0626 49.1812 28.8732L59.1405 18.9139C59.2664 18.788 59.4158 18.6881 59.5803 18.62C59.7448 18.5519 59.9211 18.5168 60.0991 18.5168C60.2772 18.5168 60.4535 18.5519 60.6179 18.62C60.7824 18.6881 60.9319 18.788 61.0578 18.9139C61.1837 19.0398 61.2835 19.1892 61.3516 19.3537C61.4198 19.5182 61.4548 19.6945 61.4548 19.8725C61.4548 20.0506 61.4198 20.2269 61.3516 20.3914C61.2835 20.5558 61.1837 20.7053 61.0578 20.8312L51.0984 30.7905C50.9727 30.9166 50.8233 31.0166 50.6588 31.0848C50.4942 31.153 50.3179 31.188 50.1398 31.1878Z" fill="#AFB6BB"/>
<path d="M1.48341 71.52L43.318 29.6854C43.6827 29.3208 44.1341 29.0549 44.6299 28.9128C45.1257 28.7707 45.6494 28.7571 46.1519 28.8732L52.8529 30.419C53.1567 30.4893 53.4362 30.6396 53.6623 30.8544C53.8884 31.0691 54.053 31.3405 54.1389 31.6403C54.2248 31.94 54.2289 32.2573 54.1509 32.5593C54.0728 32.8612 53.9154 33.1367 53.6949 33.3573L8.50849 78.5451C8.04727 79.0064 7.49967 79.3724 6.89698 79.6221C6.29429 79.8718 5.64832 80.0003 4.99595 80.0003C4.34359 80.0003 3.69761 79.8718 3.09492 79.6221C2.49223 79.3724 1.94464 79.0064 1.48341 78.5451C0.552316 77.6132 0.0292969 76.3498 0.0292969 75.0325C0.0292969 73.7152 0.552316 72.4518 1.48341 71.52Z" fill="#72A6BF"/>
<path d="M11.1444 77.2664C10.884 77.2666 10.629 77.1918 10.4099 77.0509C10.1908 76.91 10.017 76.709 9.90917 76.4719L5.51866 66.8136C5.44495 66.6515 5.40387 66.4765 5.39777 66.2986C5.39167 66.1207 5.42068 65.9433 5.48313 65.7766C5.54558 65.6099 5.64025 65.4572 5.76175 65.327C5.88324 65.1969 6.02917 65.092 6.19121 65.0183C6.35324 64.9446 6.52822 64.9035 6.70613 64.8974C6.88404 64.8913 7.06142 64.9203 7.22812 64.9828C7.39483 65.0452 7.5476 65.1399 7.67772 65.2614C7.80783 65.3829 7.91274 65.5288 7.98646 65.6908L12.377 75.3505C12.4709 75.5568 12.5116 75.7834 12.4952 76.0096C12.4789 76.2357 12.406 76.4541 12.2834 76.6447C12.1607 76.8354 11.9922 76.9922 11.7932 77.1008C11.5942 77.2095 11.3711 77.2664 11.1444 77.2664ZM16.4122 71.9986C16.1518 71.9988 15.8968 71.924 15.6777 71.7831C15.4586 71.6422 15.2848 71.4412 15.177 71.2041L10.7878 61.5458C10.7078 61.3829 10.6612 61.2055 10.651 61.0243C10.6407 60.8431 10.6669 60.6616 10.7281 60.4907C10.7893 60.3198 10.8842 60.1629 11.0071 60.0294C11.13 59.8958 11.2785 59.7883 11.4438 59.7132C11.609 59.6381 11.7877 59.597 11.9692 59.5922C12.1506 59.5875 12.3312 59.6192 12.5002 59.6855C12.6691 59.7518 12.8231 59.8514 12.9528 59.9783C13.0826 60.1053 13.1856 60.2569 13.2556 60.4244L17.6448 70.0827C17.7383 70.2891 17.7787 70.5156 17.7622 70.7415C17.7457 70.9675 17.6728 71.1858 17.5502 71.3763C17.4276 71.5669 17.2593 71.7237 17.0605 71.8324C16.8617 71.9411 16.6388 71.9982 16.4122 71.9986ZM21.6814 66.7295C21.4209 66.7297 21.1659 66.6548 20.9468 66.5139C20.7278 66.373 20.554 66.172 20.4461 65.9349L16.0556 56.2752C15.9819 56.1132 15.9408 55.9382 15.9347 55.7603C15.9286 55.5824 15.9576 55.405 16.0201 55.2383C16.0825 55.0716 16.1772 54.9189 16.2987 54.7887C16.4202 54.6586 16.5661 54.5537 16.7282 54.48C16.8902 54.4063 17.0652 54.3652 17.2431 54.3591C17.421 54.353 17.5984 54.382 17.7651 54.4445C17.9318 54.5069 18.0845 54.6016 18.2147 54.7231C18.3448 54.8446 18.4497 54.9905 18.5234 55.1525L22.9139 64.8122C23.0082 65.0186 23.0491 65.2453 23.0329 65.4716C23.0167 65.6979 22.9439 65.9166 22.8212 66.1074C22.6985 66.2983 22.5298 66.4552 22.3307 66.5639C22.1315 66.6726 21.9083 66.7296 21.6814 66.7295Z" fill="#556080"/>
<path d="M67.7681 24.4068C61.0386 24.4068 55.5647 18.9315 55.5647 12.2034C55.5647 5.47525 61.0386 0 67.7681 0C74.4976 0 79.9715 5.47525 79.9715 12.2034C79.9715 18.9315 74.4976 24.4068 67.7681 24.4068ZM67.7681 2.71186C62.5355 2.71186 58.2766 6.96949 58.2766 12.2034C58.2766 17.4373 62.5355 21.6949 67.7681 21.6949C73.0006 21.6949 77.2596 17.4373 77.2596 12.2034C77.2596 6.96949 73.0006 2.71186 67.7681 2.71186Z" fill="#C7CAC7"/>
</g>
<defs>
<clipPath id="clip0_573_1613">
<rect width="80" height="80" fill="white"/>
</clipPath>
</defs>
</svg>
