<svg width="80" height="80" viewBox="0 0 80 80" fill="none" xmlns="http://www.w3.org/2000/svg">
<g clip-path="url(#clip0_573_1762)">
<path d="M50.6666 61.3333C50.6666 59.5652 49.9642 57.8695 48.714 56.6193C47.4638 55.3691 45.7681 54.6667 44 54.6667H53.3333C60.6853 54.6667 66.6666 48.6853 66.6666 41.3333C66.6666 33.9813 60.6853 28 53.3333 28C60.6853 28 66.6666 22.0187 66.6666 14.6667C66.6666 13.64 66.5386 12.644 66.3173 11.6827C59.4146 5.264 50.1693 1.33334 40 1.33334C31.7303 1.32137 23.6767 3.97317 17.032 8.896C19.44 12.3773 23.456 14.6667 28 14.6667C20.648 14.6667 14.6666 20.648 14.6666 28C14.6666 35.352 20.648 41.3333 28 41.3333C20.648 41.3333 14.6666 47.3147 14.6666 54.6667C14.6666 62.0187 20.648 68 28 68H36V78.4613C40.9268 78.9732 45.9061 78.5328 50.6666 77.164V61.3333Z" fill="#F7B563"/>
<path d="M40 80C38.6267 80 37.2347 79.928 35.8627 79.788C35.5347 79.7537 35.2309 79.5992 35.0101 79.3542C34.7892 79.1092 34.6669 78.7912 34.6667 78.4613V69.3333H28C19.9134 69.3333 13.3334 62.7533 13.3334 54.6667C13.3334 48.7573 16.8454 43.6547 21.892 41.3333C16.8454 39.012 13.3334 33.9093 13.3334 28C13.3334 22.088 16.8494 16.9827 21.8987 14.6627C19.4979 13.5577 17.4385 11.8275 15.936 9.65333C15.7388 9.36878 15.6601 9.01855 15.7169 8.67698C15.7737 8.33542 15.9613 8.02943 16.24 7.82399C23.16 2.70533 31.376 -7.94372e-06 40 -7.94372e-06C50.1039 -0.0107541 59.8349 3.81559 67.2254 10.7053C67.42 10.8867 67.5574 11.1227 67.6174 11.3827C67.8707 12.4853 68 13.5907 68 14.6667C68 20.576 64.488 25.6787 59.4414 28C64.488 30.3213 68 35.424 68 41.3333C68 49.42 61.42 56 53.3334 56H49.9587C51.2741 57.4649 52.0012 59.3645 52 61.3333V77.164C51.9999 77.4536 51.9055 77.7352 51.7311 77.9664C51.5567 78.1976 51.3118 78.3657 51.0334 78.4453C47.446 79.4749 43.7323 79.9982 40 80ZM37.3334 77.2387C41.3661 77.5269 45.4189 77.1581 49.3334 76.1467V61.3333C49.3334 58.392 46.9414 56 44 56C43.6464 56 43.3073 55.8595 43.0572 55.6095C42.8072 55.3594 42.6667 55.0203 42.6667 54.6667C42.6667 54.313 42.8072 53.9739 43.0572 53.7238C43.3073 53.4738 43.6464 53.3333 44 53.3333H53.3334C59.9507 53.3333 65.3334 47.9507 65.3334 41.3333C65.3334 34.716 59.9507 29.3333 53.3334 29.3333C52.9798 29.3333 52.6406 29.1929 52.3906 28.9428C52.1405 28.6928 52 28.3536 52 28C52 27.6464 52.1405 27.3072 52.3906 27.0572C52.6406 26.8071 52.9798 26.6667 53.3334 26.6667C59.9507 26.6667 65.3334 21.284 65.3334 14.6667C65.3313 13.8974 65.254 13.1302 65.1027 12.376C58.2402 6.12006 49.2861 2.65677 40 2.66666C32.408 2.66666 25.1534 4.91466 18.9347 9.17733C20.0593 10.4797 21.4509 11.5249 23.015 12.242C24.5792 12.9591 26.2793 13.3313 28 13.3333C28.3537 13.3333 28.6928 13.4738 28.9429 13.7239C29.1929 13.9739 29.3334 14.313 29.3334 14.6667C29.3334 15.0203 29.1929 15.3594 28.9429 15.6095C28.6928 15.8595 28.3537 16 28 16C21.3827 16 16 21.3827 16 28C16 34.6173 21.3827 40 28 40C28.3537 40 28.6928 40.1405 28.9429 40.3905C29.1929 40.6406 29.3334 40.9797 29.3334 41.3333C29.3334 41.687 29.1929 42.0261 28.9429 42.2761C28.6928 42.5262 28.3537 42.6667 28 42.6667C21.3827 42.6667 16 48.0493 16 54.6667C16 61.284 21.3827 66.6667 28 66.6667H36C36.3537 66.6667 36.6928 66.8071 36.9429 67.0572C37.1929 67.3072 37.3334 67.6464 37.3334 68V77.2387Z" fill="#FBCE9D"/>
<path d="M56 16H26.6667C26.313 16 25.9739 15.8595 25.7239 15.6095C25.4738 15.3594 25.3333 15.0203 25.3333 14.6667C25.3333 14.313 25.4738 13.9739 25.7239 13.7239C25.9739 13.4738 26.313 13.3333 26.6667 13.3333H56C56.3536 13.3333 56.6928 13.4738 56.9428 13.7239C57.1929 13.9739 57.3333 14.313 57.3333 14.6667C57.3333 15.0203 57.1929 15.3594 56.9428 15.6095C56.6928 15.8595 56.3536 16 56 16ZM56 42.6667H26.6667C26.313 42.6667 25.9739 42.5262 25.7239 42.2761C25.4738 42.0261 25.3333 41.687 25.3333 41.3333C25.3333 40.9797 25.4738 40.6406 25.7239 40.3905C25.9739 40.1405 26.313 40 26.6667 40H56C56.3536 40 56.6928 40.1405 56.9428 40.3905C57.1929 40.6406 57.3333 40.9797 57.3333 41.3333C57.3333 41.687 57.1929 42.0261 56.9428 42.2761C56.6928 42.5262 56.3536 42.6667 56 42.6667ZM53.3333 29.3333H25.3333C24.9797 29.3333 24.6406 29.1929 24.3905 28.9428C24.1405 28.6928 24 28.3536 24 28C24 27.6464 24.1405 27.3072 24.3905 27.0572C24.6406 26.8071 24.9797 26.6667 25.3333 26.6667H53.3333C53.687 26.6667 54.0261 26.8071 54.2761 27.0572C54.5262 27.3072 54.6667 27.6464 54.6667 28C54.6667 28.3536 54.5262 28.6928 54.2761 28.9428C54.0261 29.1929 53.687 29.3333 53.3333 29.3333ZM44 56H26.6667C26.313 56 25.9739 55.8595 25.7239 55.6095C25.4738 55.3594 25.3333 55.0203 25.3333 54.6667C25.3333 54.313 25.4738 53.9739 25.7239 53.7239C25.9739 53.4738 26.313 53.3333 26.6667 53.3333H44C44.3536 53.3333 44.6928 53.4738 44.9428 53.7239C45.1929 53.9739 45.3333 54.313 45.3333 54.6667C45.3333 55.0203 45.1929 55.3594 44.9428 55.6095C44.6928 55.8595 44.3536 56 44 56Z" fill="#FBCE9D"/>
<path d="M67.312 10.8147C67.4587 10.9762 67.5636 11.1712 67.6173 11.3827C67.8707 12.4853 68 13.5907 68 14.6667C68 20.576 64.488 25.6787 59.4413 28C64.488 30.3213 68 35.424 68 41.3333C68 49.42 61.42 56 53.3333 56H49.9587C51.274 57.4649 52.0011 59.3645 52 61.3333V77.164C51.9993 77.4477 51.908 77.7237 51.7394 77.9518C51.5708 78.1799 51.3337 78.3482 51.0627 78.432C67.752 73.62 80 58.2187 80 40C80 28.4973 75.112 18.1187 67.312 10.8147ZM34.6667 78.4613V69.3333H28C19.9133 69.3333 13.3333 62.7533 13.3333 54.6667C13.3333 48.7573 16.8453 43.6547 21.892 41.3333C16.8453 39.012 13.3333 33.9093 13.3333 28C13.3333 22.088 16.8493 16.9827 21.8987 14.6627C19.4979 13.5577 17.4384 11.8275 15.936 9.65334C15.7488 9.38065 15.6706 9.04772 15.7167 8.7202C15.7629 8.39268 15.9301 8.09434 16.1853 7.884C6.37067 15.18 0 26.8587 0 40C0 60.656 15.74 77.7053 35.8547 79.7853C35.5284 79.7496 35.2268 79.5947 35.0076 79.3504C34.7884 79.1061 34.667 78.7896 34.6667 78.4613Z" fill="white"/>
</g>
<defs>
<clipPath id="clip0_573_1762">
<rect width="80" height="80" fill="white"/>
</clipPath>
</defs>
</svg>
