<svg width="80" height="80" viewBox="0 0 80 80" fill="none" xmlns="http://www.w3.org/2000/svg">
<g clip-path="url(#clip0_573_1808)">
<path d="M76.6028 68.2759H3.39724C2.49624 68.2759 1.63214 67.9179 0.995029 67.2808C0.357923 66.6437 0 65.7796 0 64.8786L0 10.9834C0 10.0824 0.357923 9.21834 0.995029 8.58123C1.63214 7.94413 2.49624 7.5862 3.39724 7.5862H76.6028C77.5038 7.5862 78.3679 7.94413 79.005 8.58123C79.6421 9.21834 80 10.0824 80 10.9834V64.8786C80 65.7796 79.6421 66.6437 79.005 67.2808C78.3679 67.9179 77.5038 68.2759 76.6028 68.2759Z" fill="#3E465B"/>
<path d="M5.19995 13.2H74.3999V60H5.19995V13.2Z" fill="#556080"/>
<rect x="5.19995" y="56.4" width="69.2" height="3.6" fill="#5F9CF8"/>
<path d="M5.51733 68.2759H13.7932V72.4138H5.51733V68.2759ZM66.207 68.2759H74.4828V72.4138H66.207V68.2759Z" fill="#363E4B"/>
<path d="M14.8267 39.5007C21.7738 45.8556 30.8822 49.323 40.2965 49.1966C49.7109 49.0703 58.723 45.3597 65.497 38.8207L47.8787 20.569C45.749 22.6248 42.9158 23.7913 39.9561 23.831C36.9964 23.8708 34.1329 22.7807 31.9488 20.7828L14.8267 39.5007Z" fill="#929BB8"/>
</g>
<defs>
<clipPath id="clip0_573_1808">
<rect width="80" height="80" fill="white"/>
</clipPath>
</defs>
</svg>
