<svg width="80" height="64" viewBox="0 0 80 64" fill="none" xmlns="http://www.w3.org/2000/svg">
<path d="M68.912 8.84403C50.7151 -8.60192 39.1405 10.4261 39.1405 10.4261C30.608 8.9579 29.0327 1.61431 29.0327 1.61431L19.3181 5.45488C19.3181 5.45488 21.5779 17.8822 38.6362 21.0449C38.6362 21.0449 38.8137 26.8065 43.381 29.0664V36.5225C43.381 36.5225 37.2805 38.7823 36.7152 43.4133C36.7152 43.4133 29.598 41.0409 24.9657 46.4635C24.9657 46.4635 1.35425 33.6037 1.35425 62.5145H8.13253C8.13253 54.3507 12.6265 52.6507 15.0233 55.0489C21.544 61.5696 25.3033 56.6309 25.3033 56.6309C37.3917 63.8606 47.6716 62.3925 47.6716 62.3925C73.9835 63.1842 89.9993 29.0609 68.912 8.84403Z" fill="#FBCE9D"/>
<path d="M45.2464 63.8769C41.4574 63.8769 33.985 63.1381 25.5067 58.316C24.474 59.1624 23.2041 59.6678 21.8722 59.7625C19.3385 59.9252 16.7288 58.6685 14.0663 56.006C13.4875 55.4285 12.7676 55.2536 12.0884 55.5383C10.8317 56.0615 9.48963 58.1669 9.48963 62.5158C9.48963 62.8754 9.34681 63.2202 9.09257 63.4744C8.83834 63.7287 8.49352 63.8715 8.13398 63.8715C7.77443 63.8715 7.42962 63.7287 7.17538 63.4744C6.92115 63.2202 6.77832 62.8754 6.77832 62.5158C6.77832 55.5572 9.76619 53.5685 11.0514 53.0357C12.7446 52.3389 14.633 52.7402 15.9846 54.0918C18.0221 56.1293 19.9946 57.1745 21.6472 57.0607C22.1409 57.0318 22.6239 56.9052 23.0684 56.6883C23.5129 56.4715 23.9099 56.1686 24.2365 55.7972L24.9753 54.8699L26.0015 55.4651C37.4907 62.3382 47.387 61.0639 47.4846 61.0476L47.5971 61.0314L47.7137 61.0341C59.4483 61.4286 70.0875 54.2423 74.8743 42.8317C78.6918 33.7312 78.8843 20.2803 67.974 9.81874C62.5351 4.60489 57.2304 2.28536 52.2077 2.93879C44.8086 3.89453 40.343 11.0565 40.2983 11.1297L39.8184 11.9119L38.9114 11.7587C29.5832 10.1536 27.7802 2.23249 27.7069 1.89629C27.6695 1.72217 27.6667 1.54239 27.6988 1.36721C27.7309 1.19202 27.7971 1.02487 27.8938 0.875311C27.9905 0.725748 28.1157 0.596702 28.2623 0.495546C28.4089 0.39439 28.574 0.323106 28.7481 0.285768C28.9218 0.247714 29.1013 0.244341 29.2763 0.275842C29.4513 0.307344 29.6183 0.373099 29.7678 0.469334C29.9174 0.565568 30.0464 0.690387 30.1475 0.836624C30.2487 0.982861 30.32 1.14764 30.3573 1.32149C30.4169 1.5872 31.7861 7.32705 38.5224 8.91452C40.038 6.79292 44.6635 1.1927 51.8363 0.253232C57.7198 -0.515426 63.7823 2.04405 69.8502 7.86253C79.8075 17.4091 82.691 31.211 77.3755 43.8796C72.1643 56.2974 60.5165 64.0342 47.7422 63.7468C47.4209 63.7888 46.5533 63.8769 45.2464 63.8769Z" fill="#CF8C6D"/>
<path d="M1.35566 63.8715C0.996114 63.8715 0.651298 63.7287 0.397063 63.4744C0.142828 63.2202 0 62.8754 0 62.5158C0 53.1143 2.45781 46.8878 7.30428 44.0084C13.6298 40.2519 21.8803 43.5 24.6648 44.8015C28.4742 41.0571 33.3329 41.3418 35.7121 41.7797C36.8847 38.4109 40.3687 36.4154 42.0254 35.6332V29.8635C38.6498 27.7704 37.6737 24.0328 37.3931 22.181C20.5192 18.6007 18.0817 6.23303 17.9841 5.69891C17.9201 5.34531 17.9991 4.98077 18.2037 4.68539C18.4084 4.39001 18.7219 4.18796 19.0754 4.12363C19.2502 4.09077 19.4298 4.09283 19.6038 4.1297C19.7778 4.16658 19.9428 4.23753 20.0892 4.33848C20.2357 4.43943 20.3607 4.56837 20.4571 4.71786C20.5534 4.86736 20.6192 5.03446 20.6507 5.20951C20.7388 5.68128 23.0204 16.7733 38.8829 19.7137L39.9566 19.913L39.9905 21.0056C39.9919 21.0504 40.2169 25.9917 43.9816 27.853L44.7367 28.2245V37.4619L43.8541 37.7927C43.7999 37.8131 38.5183 39.833 38.0614 43.5773L37.8608 45.2244L36.2869 44.6984C36.0347 44.6185 29.9627 42.7043 25.9974 47.3433L25.2857 48.177L24.3205 47.6538C24.2283 47.6023 14.9109 42.6351 8.68434 46.3415C4.7204 48.7017 2.71131 54.1433 2.71131 62.5158C2.71131 62.8754 2.56849 63.2202 2.31425 63.4744C2.06002 63.7287 1.7152 63.8715 1.35566 63.8715Z" fill="#CF8C6D"/>
</svg>
