<svg width="80" height="80" viewBox="0 0 80 80" fill="none" xmlns="http://www.w3.org/2000/svg">
<g clip-path="url(#clip0_573_1933)">
<path d="M36.0014 74.4828L37.2414 79.8938C38.1531 79.96 39.0717 80 40 80C40.9283 80 41.8469 79.96 42.7586 79.8938L44.1379 74.4828H36.0014ZM12.9972 54.8345C7.88 45.9683 5.12 32.2345 5.57517 19.6993C1.92518 25.8418 -0.000822777 32.8549 2.63672e-07 40C2.63672e-07 52.0745 5.35862 62.891 13.8179 70.2262V57.9145C13.8179 56.8303 13.5393 55.7738 12.9972 54.8345ZM74.4235 19.6317C74.891 32.1683 72.1379 45.9131 67.0262 54.7945C66.4871 55.7276 66.2053 56.7872 66.2097 57.8648V70.2014C74.6538 62.8676 80 52.0621 80 40C80.0088 32.8323 78.0822 25.7953 74.4235 19.6317Z" fill="white"/>
<path d="M44.0261 74.4828H44.1379L42.7585 79.8952C48.936 79.4798 54.9308 77.6264 60.2648 74.4828C62.373 73.2402 64.3629 71.8071 66.2096 70.2014V60.7931C56.7682 61.48 48.6303 66.7903 44.0261 74.4828Z" fill="#FBCE9D"/>
<path d="M74.4235 19.6317C73.571 18.1966 72.6299 16.816 71.6056 15.4979L71.4622 15.3159C70.9774 14.6976 70.4746 14.0937 69.9546 13.5048L69.8953 13.4359C68.8044 12.2098 67.6395 11.0518 66.407 9.96828L66.156 9.75034C65.6088 9.27601 65.0486 8.81698 64.476 8.37379C64.4029 8.31724 64.3325 8.25931 64.2594 8.20414C62.9821 7.22869 61.6473 6.33098 60.2622 5.51586C60.1229 5.4331 59.9822 5.35448 59.8415 5.2731C59.2699 4.94591 58.6904 4.63271 58.1035 4.33379C57.9656 4.26345 57.8291 4.19034 57.6898 4.12138C56.266 3.41801 54.8013 2.80081 53.3035 2.2731C53.1077 2.20414 52.9104 2.13931 52.7132 2.0731C52.1366 1.88 51.5532 1.69931 50.9642 1.53241C50.7642 1.47586 50.5642 1.41517 50.3629 1.36138C49.5903 1.15212 48.8115 0.966286 48.0277 0.804138L47.9656 0.793103C47.2046 0.641233 46.4392 0.511981 45.6704 0.405517C45.4346 0.372414 45.1973 0.344828 44.9601 0.315862C44.3674 0.243006 43.7733 0.182762 43.178 0.135172C42.938 0.115862 42.698 0.0951724 42.4566 0.08C41.6387 0.029691 40.8195 0.00301326 40.0001 0C39.1739 0 38.3546 0.0331034 37.5408 0.0827586C37.3008 0.097931 37.0635 0.118621 36.8249 0.136552C36.2249 0.183448 35.6291 0.244138 35.036 0.317241C34.8001 0.346207 34.5642 0.373793 34.3298 0.406897C33.5573 0.517241 32.7904 0.642759 32.0332 0.795862L31.9711 0.806897C31.1822 0.968276 30.4056 1.15724 29.6346 1.36414C29.4346 1.41793 29.236 1.47724 29.0373 1.53379C28.447 1.70207 27.8622 1.88276 27.2842 2.07586C27.0884 2.14207 26.8911 2.20552 26.6966 2.27448C25.1975 2.80265 23.7314 3.42031 22.3063 4.12414C22.1698 4.19172 22.036 4.26345 21.8994 4.33241C21.3091 4.6331 20.7256 4.94759 20.1532 5.27586L19.7408 5.5131C18.3538 6.3296 17.0172 7.22869 15.738 8.20552L15.5297 8.36965C14.9546 8.81655 14.3904 9.27724 13.8415 9.75448C13.7587 9.82483 13.676 9.89517 13.596 9.9669C12.3613 11.0514 11.1945 12.2109 10.1022 13.4386L10.0484 13.5007C9.52561 14.091 9.02216 14.6993 8.53389 15.32L8.39596 15.4952C7.37031 16.8143 6.42824 18.1963 5.57527 19.6331C5.10768 32.1862 7.87044 45.9531 12.996 54.8359C13.538 55.7752 13.818 56.8317 13.8166 57.9159V60.7959C23.2594 61.4814 31.396 66.7917 36.0001 74.4841H44.0249C48.6291 66.7917 56.767 61.4814 66.2084 60.7959V57.8662C66.204 56.7885 66.4858 55.729 67.0249 54.7959C72.138 45.9131 74.8911 32.1683 74.4235 19.6317Z" fill="#FBCE9D"/>
<path d="M38.6248 44.1379C26.1517 44.1379 20.0137 45.6607 9.9834 48.3076C10.8703 50.6897 11.8758 52.891 12.9972 54.8345C13.5393 55.7738 13.8193 56.8304 13.8179 57.9145V60.7945C23.2606 61.48 31.3972 66.7904 36.0013 74.4828H44.0262C48.6303 66.7904 56.7682 61.48 66.2096 60.7945V57.8648C66.2055 56.7835 66.4855 55.731 67.0262 54.7945C68.2386 52.6883 69.3158 50.2786 70.2524 47.6648C60.8137 45.4166 50.0537 44.1379 38.6248 44.1379Z" fill="#EDEDED"/>
<path d="M40.0001 31.7241C41.5236 31.7241 42.7587 30.4891 42.7587 28.9655C42.7587 27.442 41.5236 26.2069 40.0001 26.2069C38.4765 26.2069 37.2415 27.442 37.2415 28.9655C37.2415 30.4891 38.4765 31.7241 40.0001 31.7241Z" fill="#F7B563"/>
<path d="M36.0013 74.4828C31.3972 66.7903 23.2592 61.48 13.8179 60.7945V70.2262C15.6567 71.8221 17.6373 73.2468 19.7351 74.4828C25.0695 77.6254 31.0641 79.4787 37.2413 79.8952L36.0013 74.4828Z" fill="#FBCE9D"/>
<path d="M62.6896 49.8C62.3624 49.6363 61.9836 49.6093 61.6364 49.7249C61.2893 49.8405 61.0023 50.0893 60.8386 50.4166C60.6749 50.7438 60.6479 51.1226 60.7635 51.4698C60.8791 51.8169 61.1279 52.1039 61.4552 52.2676L64.5062 53.7931L61.4565 55.3172C61.1291 55.4808 60.8801 55.7676 60.7642 56.1148C60.6483 56.4619 60.6751 56.8409 60.8386 57.1683C61.0021 57.4957 61.289 57.7447 61.6361 57.8606C61.9833 57.9765 62.3622 57.9497 62.6896 57.7862L66.5572 55.8524C66.6827 55.4897 66.8317 55.1324 67.0262 54.7959C67.4345 54.0869 67.8221 53.331 68.1986 52.5559L62.6896 49.8ZM19.189 50.4179C19.0248 50.0912 18.7377 49.8428 18.3908 49.7273C18.0439 49.6117 17.6653 49.6384 17.3379 49.8014L11.8207 52.56L11.8069 52.571C12.189 53.3545 12.5821 54.1186 12.9958 54.8359C13.1821 55.1572 13.3241 55.4966 13.4483 55.8414L17.3379 57.7862C17.6653 57.9501 18.0444 57.9772 18.3918 57.8616C18.7392 57.746 19.0264 57.4971 19.1903 57.1697C19.3542 56.8423 19.3813 56.4632 19.2657 56.1158C19.1501 55.7684 18.9012 55.4811 18.5738 55.3172L15.5227 53.7931L18.5724 52.269C18.7344 52.1879 18.8789 52.0758 18.9976 51.9389C19.1163 51.802 19.2069 51.6431 19.2641 51.4712C19.3214 51.2993 19.3442 51.1178 19.3313 50.9371C19.3184 50.7564 19.27 50.58 19.189 50.4179Z" fill="#C7CAC7"/>
</g>
<defs>
<clipPath id="clip0_573_1933">
<rect width="80" height="80" fill="white"/>
</clipPath>
</defs>
</svg>
