<svg width="80" height="78" viewBox="0 0 80 78" fill="none" xmlns="http://www.w3.org/2000/svg">
<path d="M79.1504 7.50345C78.6382 6.49921 77.9196 5.61453 77.0417 4.90743C76.1638 4.20032 75.1463 3.68674 74.056 3.40036C72.9657 3.11398 71.8271 3.06126 70.715 3.24565C69.6029 3.43005 68.5423 3.8474 67.6028 4.47035L58.5076 10.5338C57.3973 11.2767 56.0604 11.604 54.7324 11.4579L55.1724 10.051C55.1724 9.3531 54.8483 8.70345 54.3187 8.24966C42.0704 -2.2469 37.76 -2.24138 25.6814 8.24966C25.1545 8.70759 24.8276 9.3531 24.8276 10.051L25.2676 11.4593C23.9392 11.6052 22.602 11.278 21.4911 10.5352L12.6993 4.6731C9.55451 2.57655 4.67037 2.9269 2.10762 5.70483C0.747618 7.17417 -0.00541785 9.10408 2.93471e-05 11.1062V15.1228C2.93471e-05 17.1834 0.79865 19.1655 2.22762 20.651C2.84279 21.291 3.50072 21.8786 4.18486 22.429C3.78072 25.0579 6.84003 28.0841 11.2759 29.3338C15.08 30.4041 18.7049 29.8331 20.309 28.1021C21.0152 28.1945 21.7255 28.2552 22.4345 28.2552C24.9449 28.2552 27.4455 27.6814 29.7173 26.5628L29.96 26.4621L31.3242 30.8234C30.6729 32.5554 30.3411 34.3911 30.3449 36.2414C30.3449 39.4566 30.8593 42.5476 32.2883 44.8028C32.4906 44.6491 32.7316 44.5546 32.9844 44.53C33.2372 44.5054 33.4919 44.5516 33.72 44.6634L36.4787 46.0428C36.7974 46.211 37.0377 46.4973 37.1481 46.8404C37.2584 47.1835 37.2301 47.5562 37.0691 47.8787C36.9081 48.2012 36.6273 48.4479 36.2868 48.5659C35.9462 48.684 35.573 48.664 35.2469 48.5103L32.9545 47.3641C32.9931 47.9779 33.1035 48.6138 33.1035 49.3448C33.0943 50.9331 33.4299 52.5044 34.0869 53.9503C34.36 54.5379 34.2787 55.2124 33.9159 55.7503C33.4028 56.5145 33.1035 57.3821 33.1035 58.3103C33.1035 58.9972 33.2718 59.6483 33.5655 60.2497C33.8193 60.7697 33.8193 61.3669 33.5655 61.8869C33.2718 62.491 33.1035 63.1421 33.1035 63.8276C33.1035 64.5131 33.2718 65.1655 33.5655 65.7669C33.8193 66.2869 33.8193 66.8841 33.5655 67.4041C33.2718 68.0083 33.1035 68.6593 33.1035 69.3448V77.6207H46.8966V69.3448C46.8966 68.6579 46.7283 68.0069 46.4345 67.4055C46.3093 67.1508 46.2441 66.8707 46.2441 66.5869C46.2441 66.3031 46.3093 66.023 46.4345 65.7683C46.7297 65.1655 46.8966 64.5145 46.8966 63.8276C46.8966 63.1407 46.7283 62.4897 46.4345 61.8883C46.3093 61.6336 46.2441 61.3535 46.2441 61.0697C46.2441 60.7858 46.3093 60.5058 46.4345 60.251C46.7297 59.6483 46.8966 58.9972 46.8966 58.3103C46.8966 57.3807 46.5973 56.5145 46.0842 55.7503C45.9026 55.4906 45.7915 55.1883 45.7615 54.8729C45.7315 54.5574 45.7838 54.2396 45.9131 53.9503C46.5703 52.5044 46.9059 50.9331 46.8966 49.3448C46.8966 48.6124 47.0069 47.9779 47.0469 47.3628L44.7545 48.509C44.4273 48.6727 44.0484 48.6997 43.7013 48.5841C43.3542 48.4684 43.0672 48.2196 42.9035 47.8924C42.7398 47.5652 42.7128 47.1863 42.8284 46.8392C42.944 46.4921 43.1928 46.2051 43.52 46.0414L46.2787 44.6621C46.5067 44.5502 46.7614 44.504 47.0143 44.5286C47.2671 44.5532 47.5081 44.6477 47.7104 44.8014C49.1407 42.5476 49.6552 39.4566 49.6552 36.2414C49.6552 34.2952 49.2966 32.4621 48.6773 30.8221L50.0414 26.4607L50.2842 26.5614C53.0806 27.9344 56.2084 28.4881 59.3062 28.1586C59.3669 28.3448 59.4414 28.5269 59.538 28.6993C60.9131 31.1517 65.4373 31.229 69.6414 28.8717C72.4 27.3255 74.3269 25.1159 74.9449 23.0855C76.0243 22.3152 77.0263 21.4416 77.9366 20.4772C79.2897 19.0359 80 17.1021 80 15.1228V11.2538C80 9.95724 79.7476 8.65517 79.1504 7.50345ZM27.5131 21.5034C27.4542 21.5279 27.3962 21.5546 27.3393 21.5834C25.0915 22.7059 22.5262 23.0219 20.0731 22.4786L19.2 22.2841C17.9352 21.12 16.1421 20.1241 14.0345 19.5297C12.2497 19.0276 10.5062 18.8897 8.989 19.0593C7.98624 18.4207 7.03727 17.6938 6.20141 16.8221C5.76157 16.3658 5.51625 15.7565 5.51727 15.1228V11.1062C5.51727 10.4497 5.77382 9.8331 6.23589 9.36828C6.63877 8.9681 7.16735 8.71912 7.73245 8.66334C8.29756 8.60756 8.86461 8.74839 9.33796 9.06207L18.4331 15.1255C19.6691 15.9503 21.0571 16.5205 22.5159 16.8028C23.9748 17.0851 25.4752 17.0738 26.9297 16.7697L28.3076 21.1738L27.5131 21.5034ZM74.4828 15.1228C74.4828 15.76 74.2387 16.3641 73.7987 16.8234C73.2428 17.4028 72.6373 17.9228 72.0042 18.4014C69.9793 18.011 67.2621 18.5324 64.6607 19.9903C63.5849 20.5931 62.6373 21.2979 61.8414 22.0524L59.9255 22.4786C57.4724 23.0212 54.9074 22.7052 52.6593 21.5834C52.6025 21.5546 52.5445 21.5279 52.4855 21.5034L51.6938 21.1738L53.0718 16.7697C54.5262 17.0738 56.0267 17.0851 57.4855 16.8028C58.9444 16.5205 60.3323 15.9503 61.5683 15.1255L70.6635 9.06207C71.1366 8.74816 71.7036 8.60731 72.2686 8.66336C72.8336 8.71941 73.3619 8.96891 73.7642 9.36966C74.2276 9.8331 74.4828 10.4497 74.4828 11.1062V15.1228Z" fill="#ED9893"/>
<path d="M52.2606 10.12C46.371 5.10069 42.9006 3.13793 39.9393 3.13793C36.9448 3.13793 33.622 5.03448 27.7393 10.1186L31.6896 22.7531L31.662 22.7641L31.6634 22.7697L31.6924 22.7572L34.2399 30.9076L33.9048 31.7986C33.3703 33.2187 33.0987 34.7241 33.1034 36.2414C33.1034 39.8703 33.811 42.5683 35.1475 44.0441L36.2468 45.2579L35.7075 46.8028C35.6593 46.9435 35.7048 47.3545 35.7503 47.7517C35.8082 48.251 35.862 48.7752 35.862 49.3448C35.862 50.5724 36.1144 51.7628 36.5903 52.7931C36.921 53.5115 37.0594 54.3035 36.9919 55.0915C36.9245 55.8796 36.6535 56.6365 36.2055 57.2883C35.9751 57.6317 35.862 57.9669 35.862 58.3103C35.862 58.5503 35.9213 58.789 36.0455 59.0414C36.3551 59.6724 36.5161 60.366 36.5161 61.069C36.5161 61.7719 36.3551 62.4655 36.0455 63.0966C35.9213 63.3503 35.862 63.589 35.862 63.8276C35.862 64.0662 35.9213 64.3062 36.0455 64.5586C36.3551 65.1897 36.5161 65.8833 36.5161 66.5862C36.5161 67.2891 36.3551 67.9827 36.0455 68.6138C35.9284 68.8399 35.8656 69.0902 35.862 69.3448V74.8621H44.1379V69.3448C44.1379 69.1048 44.0786 68.8662 43.9544 68.6138C43.6448 67.9827 43.4838 67.2891 43.4838 66.5862C43.4838 65.8833 43.6448 65.1897 43.9544 64.5586C44.0799 64.3062 44.1379 64.0676 44.1379 63.8276C44.1379 63.5876 44.0786 63.349 43.9544 63.0966C43.6448 62.4655 43.4838 61.7719 43.4838 61.069C43.4838 60.366 43.6448 59.6724 43.9544 59.0414C44.0724 58.8156 44.1353 58.5651 44.1379 58.3103C44.1379 57.9669 44.0262 57.6317 43.7972 57.2924C42.8799 55.9324 42.7351 54.251 43.411 52.7903C43.8986 51.7076 44.1465 50.5323 44.1379 49.3448C44.1379 48.7752 44.1917 48.251 44.2482 47.7531C44.2937 47.3559 44.3393 46.9435 44.291 46.8041L43.7517 45.2593L44.851 44.0455C46.1903 42.5683 46.8965 39.8703 46.8965 36.2414C46.8965 34.6966 46.6275 33.2014 46.0965 31.7986L45.7586 30.9076L48.3117 22.7503L52.2606 10.12Z" fill="#F76363"/>
<path d="M38.2152 41.2676C38.1752 41.2234 37.2414 40.1476 37.2414 36.2414C37.2414 35.1986 37.4207 34.1959 37.7738 33.2607C38.3195 31.8193 38.3661 30.2365 37.9063 28.7655L36.5435 24.4041C36.2587 23.4938 35.7886 22.6523 35.1628 21.9324C35.2674 20.9843 35.1744 20.0248 34.8897 19.1145L33.5131 14.7117C33.2269 13.7967 32.7534 12.9512 32.1228 12.229C32.1394 12.0855 32.1518 11.9434 32.1573 11.7986C35.0069 9.4469 38.058 7.27586 39.9394 7.27586C41.84 7.27586 44.9421 9.45655 47.8456 11.8221C47.8525 11.9586 47.8649 12.0938 47.8787 12.229C47.2478 12.951 46.7743 13.7965 46.4883 14.7117L45.1118 19.1145C44.8271 20.0248 44.7341 20.9843 44.8387 21.9324C44.2129 22.6523 43.7428 23.4938 43.458 24.4041L42.0952 28.7655C41.6353 30.2365 41.6819 31.8193 42.2276 33.2607C42.5807 34.1959 42.7587 35.1986 42.7587 36.2414C42.7587 40.1476 41.8249 41.2221 41.7863 41.2676H38.2152ZM35.8621 48.6552C36.1733 48.6561 36.4757 48.5517 36.7201 48.3591C36.9645 48.1664 37.1366 47.8967 37.2083 47.5939C37.2801 47.291 37.2473 46.9728 37.1153 46.691C36.9834 46.4091 36.76 46.1802 36.4814 46.0414L33.7228 44.6621C33.4947 44.5502 33.24 44.504 32.9872 44.5286C32.7343 44.5532 32.4933 44.6477 32.2911 44.8014C32.5352 45.1917 32.8014 45.5628 33.1035 45.8966C32.9297 46.3959 32.92 46.8731 32.9531 47.3628L35.2456 48.509C35.4369 48.6051 35.648 48.6552 35.8621 48.6552ZM46.28 44.6634L43.5214 46.0428C43.1971 46.208 42.9513 46.4947 42.8375 46.8404C42.7236 47.1861 42.7511 47.5628 42.9138 47.8883C43.0765 48.2139 43.3612 48.462 43.706 48.5785C44.0508 48.695 44.4277 48.6705 44.7545 48.5103L47.0469 47.3641C47.08 46.8745 47.0704 46.3959 46.8966 45.8966C47.2 45.5614 47.4649 45.1903 47.7118 44.8028C47.5095 44.6491 47.2685 44.5546 47.0157 44.53C46.7628 44.5054 46.5081 44.5516 46.28 44.6634Z" fill="#B34B4D"/>
</svg>
