<svg width="80" height="80" viewBox="0 0 80 80" fill="none" xmlns="http://www.w3.org/2000/svg">
<g clip-path="url(#clip0_573_2083)">
<path d="M24.4529 40C24.4529 21.8658 22.7241 7.05763 40.3105 6.14645C39.9797 6.13695 39.6556 6.1017 39.3221 6.1017C26.8366 6.1017 14.2021 10.8637 6.73901 20.1654C8.63867 22.1993 8.13562 30.2997 8.13562 40C8.13562 49.7003 8.63867 57.8007 6.73901 59.8346C14.2021 69.1363 26.8366 73.8983 39.3221 73.8983C39.6556 73.8983 39.9797 73.8631 40.3119 73.8536C22.7241 72.9424 24.4529 58.1342 24.4529 40Z" fill="#496AAF"/>
<path d="M77.0739 35.9322H74.316C72.2617 19.4414 57.897 6.61695 40.3119 6.14644C22.7241 7.05763 24.4529 21.8658 24.4529 40C24.4529 58.1342 22.7241 72.9424 40.3119 73.8536C57.897 73.383 72.2617 60.5586 74.3146 44.0678H78.6441V35.9322H77.0739Z" fill="#F19266"/>
<path d="M24.4528 40C24.4528 21.8658 22.724 7.05763 40.3105 6.14645C39.9796 6.13695 39.6556 6.1017 39.322 6.1017C19.8522 6.1017 21.6949 21.2787 21.6949 40C21.6949 58.7214 19.8522 73.8983 39.322 73.8983C39.6556 73.8983 39.9796 73.8631 40.3118 73.8536C22.724 72.9424 24.4528 58.1342 24.4528 40Z" fill="#F76363"/>
<path d="M21.6949 40C21.6949 48.9858 22.2034 56.2712 18.983 56.2712C15.2393 56.2712 12.2034 48.9858 12.2034 40C12.2034 31.0142 15.2393 23.7288 18.983 23.7288C22.2454 23.7288 21.6949 31.0142 21.6949 40Z" fill="#CCE0E1"/>
<path d="M78.644 38.6441H71.0698L48.8135 16.3878V11.5254C48.8135 11.1658 48.6707 10.8209 48.4164 10.5666C48.1621 10.3124 47.8172 10.1695 47.4576 10.1695C47.098 10.1695 46.7531 10.3124 46.4988 10.5666C46.2445 10.8209 46.1017 11.1658 46.1017 11.5254V15.5932H42.0339C41.6743 15.5932 41.3294 15.7361 41.0751 15.9904C40.8208 16.2447 40.6779 16.5895 40.6779 16.9492C40.6779 17.3088 40.8208 17.6537 41.0751 17.9079C41.3294 18.1622 41.6743 18.3051 42.0339 18.3051H46.8962L67.2352 38.6441H60.2224L50.4501 28.8719C50.3674 28.7892 50.2657 28.7431 50.1695 28.6861V23.7288C50.1695 23.3692 50.0266 23.0243 49.7723 22.77C49.518 22.5157 49.1732 22.3729 48.8135 22.3729C48.4539 22.3729 48.109 22.5157 47.8547 22.77C47.6005 23.0243 47.4576 23.3692 47.4576 23.7288V27.7966H43.3898C43.0302 27.7966 42.6853 27.9395 42.431 28.1938C42.1767 28.448 42.0339 28.7929 42.0339 29.1525C42.0339 29.5122 42.1767 29.857 42.431 30.1113C42.6853 30.3656 43.0302 30.5085 43.3898 30.5085H48.3457C48.4027 30.6047 48.4488 30.7064 48.5329 30.7892L56.3878 38.6441H42.5952L38.9247 34.9736C38.6705 34.7193 38.3256 34.5765 37.9661 34.5765C37.6065 34.5765 37.2617 34.7193 37.0074 34.9736C36.7532 35.2278 36.6104 35.5726 36.6104 35.9322C36.6104 36.2918 36.7532 36.6366 37.0074 36.8909L40.1166 40L37.0074 43.1092C36.8815 43.235 36.7817 43.3845 36.7136 43.549C36.6454 43.7135 36.6104 43.8898 36.6104 44.0678C36.6104 44.2458 36.6454 44.4221 36.7136 44.5866C36.7817 44.7511 36.8815 44.9006 37.0074 45.0264C37.1333 45.1523 37.2828 45.2522 37.4473 45.3203C37.6117 45.3885 37.788 45.4235 37.9661 45.4235C38.1441 45.4235 38.3204 45.3885 38.4849 45.3203C38.6494 45.2522 38.7988 45.1523 38.9247 45.0264L42.5952 41.3559H56.3878L48.2522 49.4915H43.3898C43.0302 49.4915 42.6853 49.6344 42.431 49.8887C42.1767 50.143 42.0339 50.4878 42.0339 50.8475C42.0339 51.2071 42.1767 51.552 42.431 51.8063C42.6853 52.0605 43.0302 52.2034 43.3898 52.2034H47.4576V56.2712C47.4576 56.6308 47.6005 56.9757 47.8547 57.23C48.109 57.4843 48.4539 57.6271 48.8135 57.6271C49.1732 57.6271 49.518 57.4843 49.7723 57.23C50.0266 56.9757 50.1695 56.6308 50.1695 56.2712V51.4088L60.2224 41.3559H67.2352L46.8962 61.6949H42.0339C41.6743 61.6949 41.3294 61.8378 41.0751 62.0921C40.8208 62.3463 40.6779 62.6912 40.6779 63.0508C40.6779 63.4105 40.8208 63.7554 41.0751 64.0096C41.3294 64.2639 41.6743 64.4068 42.0339 64.4068H46.1017V68.4746C46.1017 68.8342 46.2445 69.1791 46.4988 69.4334C46.7531 69.6877 47.098 69.8305 47.4576 69.8305C47.8172 69.8305 48.1621 69.6877 48.4164 69.4334C48.6707 69.1791 48.8135 68.8342 48.8135 68.4746V63.6122L71.0698 41.3559H78.644C79.0037 41.3559 79.3485 41.2131 79.6028 40.9588C79.8571 40.7045 80 40.3596 80 40C80 39.6404 79.8571 39.2955 79.6028 39.0412C79.3485 38.7869 79.0037 38.6441 78.644 38.6441Z" fill="#F7B563"/>
<path d="M8.13559 40C8.13559 51.2325 8.81763 60.339 5.65153 60.339C2.48542 60.339 0 51.2325 0 40C0 28.7675 2.48542 19.661 5.65153 19.661C8.81763 19.661 8.13559 28.7675 8.13559 40Z" fill="#B9D2D9"/>
<path d="M5.12396 56.282C3.98769 53.7939 2.6521 48.2075 2.6521 39.9281C2.6521 31.6488 3.98769 26.0624 5.12396 23.5742C5.48193 26.1424 5.43583 30.8285 5.39651 34.777C5.38024 36.4231 5.36396 38.1478 5.36396 39.9281C5.36396 41.7085 5.38159 43.4332 5.39651 45.0793C5.43583 49.0292 5.48329 53.7153 5.12396 56.282Z" fill="white"/>
</g>
<defs>
<clipPath id="clip0_573_2083">
<rect width="80" height="80" fill="white"/>
</clipPath>
</defs>
</svg>
