<svg width="80" height="80" viewBox="0 0 80 80" fill="none" xmlns="http://www.w3.org/2000/svg">
<g clip-path="url(#clip0_573_1749)">
<path d="M49.4915 6.34305V2.61695C49.4915 1.92289 49.2158 1.25726 48.725 0.766487C48.2343 0.275713 47.5686 0 46.8746 0L35.8373 0C35.1432 0 34.4776 0.275713 33.9868 0.766487C33.496 1.25726 33.2203 1.92289 33.2203 2.61695V6.34305C33.2203 7.33288 32.4176 8.13559 31.4278 8.13559H24.7498C23.4002 8.13559 22.1058 8.67173 21.1515 9.62607C20.1972 10.5804 19.661 11.8748 19.661 13.2244V55.7952C19.6608 56.303 19.7607 56.8057 19.9549 57.2748C20.1491 57.7439 20.4339 58.1701 20.7929 58.5292C21.1519 58.8882 21.5781 59.1729 22.0472 59.3671C22.5163 59.5613 23.0191 59.6612 23.5268 59.661H59.1851C59.6928 59.6612 60.1956 59.5613 60.6647 59.3671C61.1337 59.1729 61.56 58.8882 61.919 58.5292C62.278 58.1701 62.5627 57.7439 62.7569 57.2748C62.9512 56.8057 63.051 56.303 63.0508 55.7952V13.2244C63.0508 11.8748 62.5147 10.5804 61.5604 9.62607C60.606 8.67173 59.3117 8.13559 57.962 8.13559H51.2841C50.2942 8.13559 49.4915 7.33288 49.4915 6.34305Z" fill="#E7ECED"/>
<path d="M51.6881 55.5932H31.0237C30.6901 55.5932 30.366 55.4793 30.1057 55.2719L24.2806 50.6115C24.1086 50.4736 23.9697 50.2988 23.8742 50.1C23.7787 49.9012 23.729 49.6836 23.7288 49.4631V13.6732C23.7288 12.861 24.3864 12.2034 25.1986 12.2034H57.5145C58.3267 12.2034 58.9844 12.861 58.9844 13.6732V49.4631C58.9844 49.9092 58.781 50.3322 58.4325 50.6102L52.6074 55.2705C52.3464 55.4792 52.0222 55.593 51.6881 55.5932Z" fill="#B02721"/>
<path d="M51.6881 56.9491H31.0237C30.3864 56.9491 29.7599 56.7295 29.2609 56.3322L23.4318 51.6691C23.1005 51.405 22.8331 51.0693 22.6498 50.6873C22.4664 50.3053 22.3717 49.8868 22.3728 49.463V13.6732C22.3728 12.1153 23.6406 10.8475 25.1986 10.8475H57.5132C59.0711 10.8475 60.3389 12.1153 60.3389 13.6732V49.463C60.3389 50.3268 59.9525 51.1295 59.2799 51.6691L53.4535 56.3308C52.9518 56.7295 52.3254 56.9491 51.6881 56.9491ZM25.1986 13.5593C25.1685 13.5597 25.1397 13.5718 25.1184 13.5931C25.0971 13.6144 25.085 13.6431 25.0847 13.6732V49.463L30.9532 54.2129L51.6881 54.2373C51.7152 54.2373 51.7396 54.2278 51.7613 54.2102L57.585 49.5512L57.6271 13.6732C57.6267 13.6431 57.6146 13.6144 57.5933 13.5931C57.572 13.5718 57.5433 13.5597 57.5132 13.5593H25.1986Z" fill="#E6E6E6"/>
<path d="M41.3559 70.5085C42.1048 70.5085 42.7119 69.9014 42.7119 69.1525C42.7119 68.4037 42.1048 67.7966 41.3559 67.7966C40.6071 67.7966 40 68.4037 40 69.1525C40 69.9014 40.6071 70.5085 41.3559 70.5085Z" fill="#DD352E"/>
<path d="M41.3559 71.8644C40.9963 71.8644 40.6514 72.0073 40.3971 72.2615C40.1428 72.5158 39.9999 72.8607 39.9999 73.2203C39.9999 75.463 38.1749 77.2881 35.9321 77.2881C32.941 77.2881 30.5084 74.8556 30.5084 71.8644C30.5084 71.7546 30.4705 71.6569 30.446 71.5539C30.1301 67.8278 27.3667 65.0847 23.7288 65.0847C20.0908 65.0847 17.3274 67.8278 17.0115 71.5552C16.9871 71.6569 16.9491 71.7546 16.9491 71.8644V78.6441C16.9491 79.0037 17.092 79.3486 17.3462 79.6029C17.6005 79.8571 17.9454 80 18.305 80C18.6646 80 19.0095 79.8571 19.2638 79.6029C19.5181 79.3486 19.661 79.0037 19.661 78.6441V72.2522C19.661 69.6705 21.3721 67.7966 23.7288 67.7966C26.0854 67.7966 27.7966 69.6705 27.7966 72.2522C27.7966 72.2983 27.8182 72.3376 27.8223 72.3824C28.0921 76.6264 31.6203 80 35.9321 80C39.6705 80 42.7118 76.9586 42.7118 73.2203C42.7118 72.8607 42.569 72.5158 42.3147 72.2615C42.0604 72.0073 41.7155 71.8644 41.3559 71.8644ZM41.3559 51.5254C40.9963 51.5254 40.6514 51.6683 40.3971 51.9226C40.1428 52.1769 39.9999 52.5217 39.9999 52.8814V63.7288C39.9999 64.0884 40.1428 64.4333 40.3971 64.6876C40.6514 64.9419 40.9963 65.0847 41.3559 65.0847C41.7155 65.0847 42.0604 64.9419 42.3147 64.6876C42.569 64.4333 42.7118 64.0884 42.7118 63.7288V52.8814C42.7118 52.5217 42.569 52.1769 42.3147 51.9226C42.0604 51.6683 41.7155 51.5254 41.3559 51.5254Z" fill="#DD352E"/>
<path d="M45.4237 4.0678H42.7118C42.7118 3.70818 42.5689 3.36329 42.3146 3.10901C42.0604 2.85472 41.7155 2.71186 41.3559 2.71186C40.9962 2.71186 40.6514 2.85472 40.3971 3.10901C40.1428 3.36329 39.9999 3.70818 39.9999 4.0678H37.2881C36.9284 4.0678 36.5836 4.21065 36.3293 4.46494C36.075 4.71923 35.9321 5.06411 35.9321 5.42373C35.9321 5.78334 36.075 6.12823 36.3293 6.38252C36.5836 6.6368 36.9284 6.77966 37.2881 6.77966H39.9999C39.9999 7.13928 40.1428 7.48416 40.3971 7.73845C40.6514 7.99274 40.9962 8.13559 41.3559 8.13559C41.7155 8.13559 42.0604 7.99274 42.3146 7.73845C42.5689 7.48416 42.7118 7.13928 42.7118 6.77966H45.4237C45.7833 6.77966 46.1282 6.6368 46.3824 6.38252C46.6367 6.12823 46.7796 5.78334 46.7796 5.42373C46.7796 5.06411 46.6367 4.71923 46.3824 4.46494C46.1282 4.21065 45.7833 4.0678 45.4237 4.0678Z" fill="#556080"/>
<path d="M43.2731 74.5763H39.4386L35.9321 71.0698V62.3729H46.7796V71.0698L43.2731 74.5763ZM40.5613 71.8644H42.1504L44.0677 69.9471V65.0847H38.644V69.9471L40.5613 71.8644Z" fill="#C7CAC7"/>
<path d="M48.1356 65.0847H34.5763C34.2167 65.0847 33.8718 64.9419 33.6175 64.6876C33.3632 64.4333 33.2203 64.0884 33.2203 63.7288C33.2203 63.3692 33.3632 63.0243 33.6175 62.77C33.8718 62.5157 34.2167 62.3729 34.5763 62.3729H48.1356C48.4952 62.3729 48.8401 62.5157 49.0944 62.77C49.3487 63.0243 49.4915 63.3692 49.4915 63.7288C49.4915 64.0884 49.3487 64.4333 49.0944 64.6876C48.8401 64.9419 48.4952 65.0847 48.1356 65.0847Z" fill="#C7CAC7"/>
</g>
<defs>
<clipPath id="clip0_573_1749">
<rect width="80" height="80" fill="white"/>
</clipPath>
</defs>
</svg>
