<svg width="80" height="80" viewBox="0 0 80 80" fill="none" xmlns="http://www.w3.org/2000/svg">
<g clip-path="url(#clip0_573_1593)">
<path d="M40 0C17.909 0 0 17.909 0 40C0 40.9297 0.057931 41.8455 0.12 42.7586H31.0524C31.684 42.7586 32.3095 42.883 32.893 43.1247C33.4765 43.3664 34.0067 43.7207 34.4534 44.1673C34.9 44.614 35.2542 45.1442 35.496 45.7277C35.7377 46.3112 35.8621 46.9367 35.8621 47.5683V48.2759L31.04 59.9586C30.4532 61.4226 30.2345 63.0081 30.4031 64.5763C30.5716 66.1444 31.1223 67.6473 32.0069 68.9531C33.8055 71.6096 36.7931 73.1945 40 73.1945C43.2069 73.1945 46.1945 71.6096 47.9931 68.9531C48.8777 67.6476 49.4284 66.1449 49.5969 64.577C49.7655 63.0091 49.5468 61.4237 48.96 59.96L44.1379 48.2731V47.5696C44.1378 46.9379 44.262 46.3123 44.5036 45.7287C44.7453 45.145 45.0995 44.6146 45.5462 44.1678C45.9928 43.7211 46.5231 43.3667 47.1067 43.1249C47.6903 42.8831 48.3159 42.7586 48.9476 42.7586H79.88C79.9421 41.8455 80 40.9297 80 40C80 17.909 62.091 0 40 0Z" fill="white"/>
<path d="M44.1378 47.5683V48.2717L48.9599 59.96C49.5466 61.4238 49.7652 63.0091 49.5967 64.577C49.4281 66.1449 48.8774 67.6475 47.993 68.9531C46.1944 71.6097 43.2068 73.1945 39.9999 73.1945C36.793 73.1945 33.8054 71.6097 32.0068 68.9531C31.1222 67.6473 30.5715 66.1445 30.403 64.5763C30.2344 63.0081 30.4531 61.4226 31.0399 59.9586L35.862 48.2759V47.5683C35.862 46.2927 35.3552 45.0693 34.4533 44.1673C33.5513 43.2654 32.3279 42.7586 31.0523 42.7586H0.104736C1.52405 63.5614 18.8371 80 39.9999 80C61.1627 80 78.4758 63.5614 79.8951 42.7586H48.9475C47.6719 42.7586 46.4485 43.2654 45.5466 44.1673C44.6446 45.0693 44.1378 46.2927 44.1378 47.5683Z" fill="#EA7F5F"/>
<path d="M78.7985 49.1228C78.2785 48.6025 77.661 48.1898 76.9814 47.9082C76.3018 47.6266 75.5734 47.4817 74.8378 47.4817C74.1022 47.4817 73.3738 47.6266 72.6942 47.9082C72.0146 48.1898 71.3972 48.6025 70.8771 49.1228L70.1668 49.8331C69.6467 50.3534 69.0293 50.7661 68.3497 51.0477C67.6701 51.3293 66.9417 51.4742 66.2061 51.4742C65.4705 51.4742 64.7421 51.3293 64.0625 51.0477C63.3829 50.7661 62.7654 50.3534 62.2454 49.8331C60.0578 47.6455 56.5116 47.6455 54.324 49.8331C52.1364 52.0207 48.5902 52.0207 46.4026 49.8331L45.6923 49.1228C45.2495 48.68 45.9406 52.4152 45.9406 52.4152L48.9585 59.96C49.5452 61.4237 49.7638 63.0091 49.5953 64.577C49.4267 66.1449 48.876 67.6475 47.9916 68.9531C46.193 71.6097 43.2054 73.1945 39.9985 73.1945C36.7916 73.1945 33.804 71.6097 32.0054 68.9531C31.1209 67.6473 30.5701 66.1445 30.4016 64.5763C30.233 63.0081 30.4517 61.4226 31.0385 59.9586L34.5144 51.2676C32.6551 51.7517 30.5985 51.2883 29.142 49.8303L28.4523 49.1407C27.9323 48.6204 27.3148 48.2077 26.6352 47.9261C25.9556 47.6445 25.2272 47.4996 24.4916 47.4996C23.756 47.4996 23.0276 47.6445 22.348 47.9261C21.6684 48.2077 21.051 48.6204 20.5309 49.1407L19.8413 49.8303C19.3212 50.3506 18.7038 50.7633 18.0242 51.0449C17.3446 51.3265 16.6162 51.4714 15.8806 51.4714C15.145 51.4714 14.4166 51.3265 13.737 51.0449C13.0574 50.7633 12.4399 50.3506 11.9199 49.8303L11.2095 49.12C10.6895 48.5997 10.0721 48.187 9.39247 47.9054C8.71288 47.6238 7.98447 47.4789 7.24886 47.4789C6.51324 47.4789 5.78484 47.6238 5.10525 47.9054C4.42566 48.187 3.80821 48.5997 3.28817 49.12L2.57782 49.8303C2.23953 50.1596 1.86088 50.4446 1.45093 50.6786C6.12817 67.5848 21.6095 80 39.9999 80C58.9089 80 74.7433 66.8745 78.9158 49.24L78.7985 49.1228Z" fill="#FBCE9D"/>
<path d="M60.6896 60.6897C61.4514 60.6897 62.0689 60.0721 62.0689 59.3103C62.0689 58.5486 61.4514 57.931 60.6896 57.931C59.9278 57.931 59.3103 58.5486 59.3103 59.3103C59.3103 60.0721 59.9278 60.6897 60.6896 60.6897Z" fill="white"/>
<path d="M67.5861 63.4483C68.3479 63.4483 68.9654 62.8307 68.9654 62.069C68.9654 61.3072 68.3479 60.6897 67.5861 60.6897C66.8243 60.6897 66.2068 61.3072 66.2068 62.069C66.2068 62.8307 66.8243 63.4483 67.5861 63.4483Z" fill="white"/>
<path d="M57.9311 67.5862C58.6928 67.5862 59.3104 66.9687 59.3104 66.2069C59.3104 65.4451 58.6928 64.8276 57.9311 64.8276C57.1693 64.8276 56.5518 65.4451 56.5518 66.2069C56.5518 66.9687 57.1693 67.5862 57.9311 67.5862Z" fill="white"/>
<path d="M53.7931 59.3103C54.5549 59.3103 55.1724 58.6928 55.1724 57.931C55.1724 57.1693 54.5549 56.5517 53.7931 56.5517C53.0314 56.5517 52.4138 57.1693 52.4138 57.931C52.4138 58.6928 53.0314 59.3103 53.7931 59.3103Z" fill="white"/>
<path d="M52.4137 73.1035C53.1755 73.1035 53.793 72.4859 53.793 71.7241C53.793 70.9624 53.1755 70.3448 52.4137 70.3448C51.652 70.3448 51.0344 70.9624 51.0344 71.7241C51.0344 72.4859 51.652 73.1035 52.4137 73.1035Z" fill="white"/>
<path d="M26.2069 57.931C26.9687 57.931 27.5863 57.3135 27.5863 56.5517C27.5863 55.79 26.9687 55.1724 26.2069 55.1724C25.4452 55.1724 24.8276 55.79 24.8276 56.5517C24.8276 57.3135 25.4452 57.931 26.2069 57.931Z" fill="white"/>
<path d="M22.069 68.9655C22.8308 68.9655 23.4483 68.348 23.4483 67.5862C23.4483 66.8244 22.8308 66.2069 22.069 66.2069C21.3072 66.2069 20.6897 66.8244 20.6897 67.5862C20.6897 68.348 21.3072 68.9655 22.069 68.9655Z" fill="white"/>
<path d="M20.6896 62.069C21.4514 62.069 22.0689 61.4514 22.0689 60.6897C22.0689 59.9279 21.4514 59.3103 20.6896 59.3103C19.9278 59.3103 19.3103 59.9279 19.3103 60.6897C19.3103 61.4514 19.9278 62.069 20.6896 62.069Z" fill="white"/>
<path d="M12.4137 62.069C13.1755 62.069 13.793 61.4514 13.793 60.6897C13.793 59.9279 13.1755 59.3103 12.4137 59.3103C11.652 59.3103 11.0344 59.9279 11.0344 60.6897C11.0344 61.4514 11.652 62.069 12.4137 62.069Z" fill="white"/>
<path d="M8.27579 56.5517C9.03757 56.5517 9.65511 55.9342 9.65511 55.1724C9.65511 54.4106 9.03757 53.7931 8.27579 53.7931C7.51402 53.7931 6.89648 54.4106 6.89648 55.1724C6.89648 55.9342 7.51402 56.5517 8.27579 56.5517Z" fill="white"/>
<path d="M40.0001 52.4138L43.8387 62.0097C44.9243 64.7255 42.9256 67.6786 40.0001 67.6786C37.076 67.6786 35.076 64.7255 36.1615 62.0097L40.0001 52.4138Z" fill="#CFA58F"/>
<path d="M45.1187 61.4979L41.3794 52.1476V9.65517C41.3794 9.28936 41.2341 8.93853 40.9754 8.67985C40.7167 8.42118 40.3659 8.27586 40.0001 8.27586C39.6342 8.27586 39.2834 8.42118 39.0247 8.67985C38.7661 8.93853 38.6207 9.28936 38.6207 9.65517V52.1476L34.8814 61.4966C34.5462 62.3328 34.4211 63.2385 34.5173 64.1342C34.6135 65.03 34.928 65.8885 35.4332 66.6345C36.4607 68.1531 38.167 69.0579 40.0001 69.0579C41.8332 69.0579 43.538 68.1531 44.567 66.6345C45.072 65.8887 45.3864 65.0305 45.4826 64.1349C45.5788 63.2394 45.4538 62.3339 45.1187 61.4979ZM42.2814 65.0869C41.7601 65.8566 40.9297 66.2979 40.0001 66.2979C39.0704 66.2979 38.2401 65.8566 37.7187 65.0869C37.4637 64.7156 37.3051 64.2867 37.2571 63.8388C37.2092 63.391 37.2735 62.9382 37.4442 62.5214L40.0001 56.1283L42.5573 62.5228C42.9021 63.3834 42.8014 64.32 42.2814 65.0869Z" fill="#1B1C1D"/>
</g>
<defs>
<clipPath id="clip0_573_1593">
<rect width="80" height="80" fill="white"/>
</clipPath>
</defs>
</svg>
