<svg width="80" height="80" viewBox="0 0 80 80" fill="none" xmlns="http://www.w3.org/2000/svg">
<g clip-path="url(#clip0_573_1571)">
<path d="M35.0386 80C34.085 80.0001 33.1344 79.8946 32.2041 79.6855C27.9848 78.7393 23.0441 71.1517 20.2524 66.2703C18.5972 63.3752 18.3737 59.8331 19.7931 56.8166C20.0317 56.3103 20.2634 55.9476 20.4634 55.8552C21.1171 55.523 21.8355 55.3379 22.5683 55.3129C23.301 55.2879 24.0304 55.4235 24.7052 55.7103C25.38 55.9971 25.9839 56.4281 26.4744 56.973C26.9649 57.518 27.3303 58.1637 27.5448 58.8648C29.4993 65.2359 32.0634 60.1655 34.4055 60.691C36.5503 61.1862 40.1724 68.1007 44.0689 63.8262C50.8124 56.429 54.9475 46.9172 56.0262 36.3228C56.7848 28.8759 56.6717 18.9159 51.8289 13.7586C49.3186 11.0841 45.6372 9.88827 40.5241 10.0745C31.9531 10.4041 26.4055 12.4028 24.4827 15.8552C22.3089 19.7545 24.7296 25.7159 25.8441 27.6828C26.5005 28.8401 26.6724 30.2101 26.3222 31.4936C25.9721 32.7772 25.1283 33.8701 23.9751 34.5338C22.8244 35.1961 21.458 35.375 20.1755 35.0314C18.8931 34.6877 17.7992 33.8496 17.1337 32.7007C16.8537 32.2166 10.3241 20.72 15.6648 11.029C19.4234 4.21103 27.6565 0.51034 40.1379 0.0303404C48.1917 -0.28828 54.5999 2.02482 59.1558 6.87724C65.1255 13.2345 67.4358 23.4841 66.0262 37.3421C64.7268 50.0966 59.7034 61.5959 51.4965 70.5972C45.7999 76.8483 40.2758 80 35.0386 80Z" fill="#FBCE9D"/>
<path d="M24.0786 55.5172C25.6731 55.9628 27.0235 57.1628 27.5462 58.8648C29.5007 65.2359 32.0648 60.1655 34.4069 60.691C36.5517 61.1862 40.1738 68.1007 44.0704 63.8262C50.8138 56.4276 54.949 46.9172 56.0276 36.3228C56.7862 28.8759 56.6731 18.9159 51.8304 13.7586C49.32 11.0841 45.6386 9.88827 40.5255 10.0745C31.9545 10.4041 26.4069 12.4028 24.4842 15.8552C22.3104 19.7545 24.7311 25.7159 25.8455 27.6828C26.5019 28.8401 26.6738 30.21 26.3237 31.4936C25.9735 32.7772 25.1297 33.8701 23.9766 34.5338C23.3511 34.8894 22.6562 35.1059 21.9393 35.1683C22.24 36.2993 22.5545 37.5862 22.8524 39C19.0607 39.9296 16.3311 42.4938 16.3311 45.5172C16.3311 48.9048 19.7531 51.7159 24.2607 52.2979C24.2406 53.3729 24.1798 54.4468 24.0786 55.5172Z" fill="#DBA16E"/>
<path d="M32.9476 54.9145C30.6317 54.9145 29.2759 54.0676 28.6317 53.5076C27.3876 52.4234 26.9242 50.8703 27.4262 49.4524C27.9683 47.9241 29.4718 46.9669 31.4538 46.8965C33.0235 46.8965 34.2607 45.6593 34.2607 44.1379C34.2607 42.6165 33.0235 41.3793 31.5021 41.3793C31.1363 41.3793 30.7854 41.234 30.5268 40.9753C30.2681 40.7166 30.1228 40.3658 30.1228 40C30.1228 39.6342 30.2681 39.2833 30.5268 39.0247C30.7854 38.766 31.1363 38.6207 31.5021 38.6207C34.5449 38.6207 37.0193 41.0952 37.0193 44.1379C37.0193 47.1807 34.5449 49.6552 31.5021 49.6552C30.7573 49.6827 30.1738 49.9586 30.0262 50.3738C29.9117 50.6993 30.0704 51.1021 30.4442 51.4276C31.5655 52.4027 34.5338 52.6841 39.2083 50.2565C44.0373 47.7503 46.7876 44.3186 46.7545 40.8441C46.72 37.2083 43.7766 33.7586 38.4676 31.1324C37.5049 30.6552 36.4028 30.3917 35.3531 30.1765C31.5255 29.3945 28.7449 25.9834 28.7449 22.069C28.7449 17.5048 32.4566 13.7931 37.0207 13.7931C37.3865 13.7931 37.7374 13.9384 37.996 14.1971C38.2547 14.4558 38.4 14.8066 38.4 15.1724C38.4 15.5382 38.2547 15.889 37.996 16.1477C37.7374 16.4064 37.3865 16.5517 37.0207 16.5517C33.978 16.5517 31.5035 19.0262 31.5035 22.069C31.5061 23.3382 31.945 24.5681 32.7466 25.5522C33.5482 26.5364 34.6637 27.215 35.9062 27.4745C37.138 27.7269 38.4469 28.0441 39.6897 28.6593C45.978 31.771 49.4662 36.0896 49.5117 40.8165C49.5559 45.3683 46.2635 49.7007 40.4786 52.7048C37.2704 54.3724 34.8014 54.9145 32.9476 54.9145Z" fill="#FBCE9D"/>
</g>
<defs>
<clipPath id="clip0_573_1571">
<rect width="80" height="80" fill="white"/>
</clipPath>
</defs>
</svg>
