<svg width="80" height="80" viewBox="0 0 80 80" fill="none" xmlns="http://www.w3.org/2000/svg">
<path d="M72.0441 61.0138C70.7101 60.6418 69.3072 60.5889 67.949 60.8593C67.0772 61.0331 66.1752 60.8483 65.4827 60.2924L63.5365 58.731C62.48 57.8841 62.1683 56.4345 62.7296 55.2014C63.2496 54.0579 63.6814 52.8662 64.0152 51.6331C64.5696 49.5821 66.7848 48.331 68.7655 49.0979C69.8553 49.5207 71.0226 49.7066 72.1898 49.6434C73.3571 49.5801 74.4974 49.2691 75.5352 48.731C79.3586 46.76 81.0469 41.9476 79.2979 38.0179C78.8523 37.0152 78.2117 36.1111 77.4134 35.3582C76.6152 34.6053 75.6751 34.0187 74.648 33.6324C73.621 33.2462 72.5273 33.0681 71.4307 33.1085C70.3342 33.1489 69.2566 33.4069 68.2607 33.8676C67.839 34.0749 67.4381 34.322 67.0634 34.6055C65.1876 35.9779 62.6924 35.4841 61.4993 33.4897C60.7462 32.2303 59.8234 31.0883 58.9034 29.9434C58.3062 29.1992 57.9378 28.2977 57.843 27.3481C57.7483 26.3986 57.9312 25.442 58.3696 24.5945L60.4096 20.6345C61.1683 19.1614 62.5752 18.0538 64.2234 17.8924C65.1143 17.8019 65.9837 17.5633 66.7959 17.1862C69.4 15.9945 71.3255 13.5421 71.6745 10.6993C71.836 9.42651 71.6996 8.13359 71.276 6.92252C70.8524 5.71146 70.1532 4.61538 69.2335 3.72075C68.3139 2.82612 67.199 2.1574 65.9767 1.76734C64.7544 1.37728 63.4582 1.27655 62.1903 1.4731C58.7048 1.9931 55.8607 4.79862 55.2993 8.27724C55.0342 9.86576 55.2369 11.4971 55.8827 12.9724C56.5159 14.4138 56.571 16.0428 55.8496 17.4428L54.2524 20.5448C53.1421 22.7007 50.6496 23.8469 48.3352 23.1241C46.9821 22.7021 44.5862 22.4028 42.9283 22.2359C42.3988 22.1832 41.8988 21.9668 41.4981 21.6167C41.0974 21.2667 40.8157 20.8004 40.6924 20.2828L39.1172 13.6607C38.9227 12.8414 39.1669 11.9959 39.7172 11.3586C40.4021 10.573 40.8974 9.64066 41.165 8.6334C41.4326 7.62614 41.4653 6.57088 41.2607 5.54896C40.749 2.88276 38.6262 0.702068 35.9669 0.151723C34.9596 -0.0664711 33.9162 -0.0564455 32.9133 0.181065C31.9104 0.418575 30.9734 0.877546 30.1709 1.52432C29.3684 2.1711 28.7209 2.98928 28.2758 3.91888C27.8307 4.84847 27.5993 5.86589 27.5986 6.89655C27.5996 8.30009 28.0305 9.66964 28.8335 10.8208C29.6364 11.972 30.7728 12.8495 32.0896 13.3352C32.9324 13.6483 33.6 14.3076 33.8083 15.1821L35.0676 20.4952C35.3696 21.771 34.6483 23.0455 33.4152 23.491C31.6623 24.1226 29.9915 24.9622 28.4386 25.9917C27.3324 26.7241 25.8248 26.7076 24.7945 25.8731C23.6703 24.9614 23.4276 23.4897 23.9627 22.2317C24.829 20.1986 25.1062 17.8552 24.5545 15.4041C23.6124 11.2124 20.1669 7.89241 15.9434 7.09931C14.1628 6.75011 12.3236 6.84468 10.5882 7.37467C8.85282 7.90466 7.2746 8.85377 5.99289 10.1382C4.71119 11.4226 3.76544 13.0029 3.23914 14.7394C2.71284 16.4759 2.62218 18.3153 2.97516 20.0952C3.80688 24.4745 7.36275 27.9876 11.7476 28.7807C13.5841 29.1209 15.4767 28.9957 17.2524 28.4165C18.4207 28.0317 19.7021 28.4566 20.4731 29.4152L21.0248 30.1021C21.8165 31.0869 21.9021 32.4552 21.2552 33.5407C19.5961 36.3195 18.5354 39.414 18.1407 42.6262C18.0645 43.2896 17.7624 43.9066 17.2853 44.3737C16.8081 44.8408 16.1848 45.1296 15.52 45.1917L12.9007 45.4262C12.0041 45.5062 11.1545 45.1352 10.5117 44.5062C9.46184 43.4768 8.07586 42.8607 6.60826 42.771C4.14895 42.6055 1.74482 43.971 0.664815 46.1876C0.251631 47.0156 0.0285929 47.9254 0.0119871 48.8506C-0.00461879 49.7758 0.185627 50.6931 0.568832 51.5353C0.952038 52.3776 1.51853 53.1237 2.22693 53.7191C2.93533 54.3144 3.76777 54.744 4.66344 54.9766C5.93901 55.3061 7.28655 55.2189 8.50903 54.7277C9.73151 54.2366 10.7648 53.3673 11.4579 52.2469C11.9586 51.4414 12.8607 50.9697 13.8055 50.8855L16.0552 50.6841C16.7149 50.6284 17.3739 50.7992 17.9235 51.1683C18.4731 51.5374 18.8806 52.0827 19.0786 52.7145C19.9928 55.5451 21.4389 58.1751 23.3393 60.4634C23.6621 60.8569 23.8327 61.3533 23.8197 61.8621C23.8068 62.3708 23.6113 62.8579 23.269 63.2345C22.6827 63.8855 21.7724 64.0745 20.9379 63.8083C19.9545 63.496 18.9179 63.3867 17.891 63.4869C14.4455 63.8138 11.571 66.5669 11.1145 69.9986C10.9494 71.199 11.0739 72.4214 11.4775 73.5638C11.8812 74.7062 12.5522 75.7355 13.4347 76.5657C14.3172 77.396 15.3855 78.0031 16.5504 78.3363C17.7153 78.6696 18.943 78.7193 20.131 78.4814C22.84 77.9628 25.091 75.9062 25.8855 73.2635C26.2717 71.9807 26.3034 70.7407 26.0772 69.5931C25.9503 68.9476 26.1476 68.2828 26.5876 67.7931L27.6703 66.5917C27.9844 66.2377 28.4084 65.9995 28.8742 65.9154C29.34 65.8314 29.8206 65.9063 30.2386 66.1283C30.9131 66.4952 31.6083 66.829 32.3214 67.1297C33.8441 67.7697 34.6717 69.3614 34.5255 71.0055C34.4537 71.8301 34.5048 72.6608 34.6772 73.4703C35.4055 76.9241 38.3779 79.5945 41.8883 79.9572C43.1735 80.0943 44.473 79.9284 45.6827 79.4729C46.8923 79.0174 47.9784 78.2849 48.8541 77.3342C49.7298 76.3834 50.3706 75.2408 50.7253 73.9979C51.0799 72.755 51.1386 71.4462 50.8965 70.1766C50.5793 68.5228 51.251 66.8455 52.7241 66.0303C54.0776 65.2809 55.3533 64.3989 56.5324 63.3972C57.2565 62.7821 58.2179 62.4317 59.1407 62.6648C61.0234 63.1407 61.8303 64.9848 61.2455 66.5766C60.704 68.0585 60.5609 69.6565 60.8303 71.211C61.469 74.9986 64.6041 78.0235 68.4096 78.5393C69.7556 78.7287 71.1269 78.6098 72.4201 78.1916C73.7133 77.7734 74.8946 77.0668 75.8748 76.1251C76.8549 75.1835 77.6083 74.0315 78.078 72.7561C78.5477 71.4807 78.7215 70.1152 78.5862 68.7628C78.2359 65.1145 75.5752 61.9835 72.0441 61.0138Z" fill="#694F87"/>
<path d="M45.5297 35.8621C46.2915 35.8621 46.909 35.2445 46.909 34.4828C46.909 33.721 46.2915 33.1034 45.5297 33.1034C44.7679 33.1034 44.1504 33.721 44.1504 34.4828C44.1504 35.2445 44.7679 35.8621 45.5297 35.8621Z" fill="#BF4D90"/>
<path d="M30.3572 52.4138C31.119 52.4138 31.7365 51.7962 31.7365 51.0345C31.7365 50.2727 31.119 49.6552 30.3572 49.6552C29.5954 49.6552 28.9779 50.2727 28.9779 51.0345C28.9779 51.7962 29.5954 52.4138 30.3572 52.4138Z" fill="#BF4D90"/>
<path d="M57.9434 56.5517C58.7052 56.5517 59.3227 55.9342 59.3227 55.1724C59.3227 54.4106 58.7052 53.7931 57.9434 53.7931C57.1816 53.7931 56.5641 54.4106 56.5641 55.1724C56.5641 55.9342 57.1816 56.5517 57.9434 56.5517Z" fill="#BF4D90"/>
<path d="M67.5985 42.7586C68.3603 42.7586 68.9779 42.1411 68.9779 41.3793C68.9779 40.6175 68.3603 40 67.5985 40C66.8368 40 66.2192 40.6175 66.2192 41.3793C66.2192 42.1411 66.8368 42.7586 67.5985 42.7586Z" fill="#BF4D90"/>
<path d="M52.4262 30.3448C53.188 30.3448 53.8055 29.7273 53.8055 28.9655C53.8055 28.2037 53.188 27.5862 52.4262 27.5862C51.6644 27.5862 51.0469 28.2037 51.0469 28.9655C51.0469 29.7273 51.6644 30.3448 52.4262 30.3448Z" fill="#BF4D90"/>
<path d="M42.7711 64.8276C46.5799 64.8276 49.6676 61.7399 49.6676 57.931C49.6676 54.1222 46.5799 51.0345 42.7711 51.0345C38.9622 51.0345 35.8745 54.1222 35.8745 57.931C35.8745 61.7399 38.9622 64.8276 42.7711 64.8276Z" fill="#BF4D90"/>
<path d="M31.7366 42.7586C34.0219 42.7586 35.8745 40.906 35.8745 38.6207C35.8745 36.3354 34.0219 34.4828 31.7366 34.4828C29.4512 34.4828 27.5986 36.3354 27.5986 38.6207C27.5986 40.906 29.4512 42.7586 31.7366 42.7586Z" fill="#BF4D90"/>
<path d="M55.1848 46.8966C57.4701 46.8966 59.3227 45.0439 59.3227 42.7586C59.3227 40.4733 57.4701 38.6207 55.1848 38.6207C52.8995 38.6207 51.0469 40.4733 51.0469 42.7586C51.0469 45.0439 52.8995 46.8966 55.1848 46.8966Z" fill="#BF4D90"/>
<path d="M43.4607 64.8276C44.6033 64.8276 45.5297 63.9013 45.5297 62.7586C45.5297 61.616 44.6033 60.6897 43.4607 60.6897C42.318 60.6897 41.3917 61.616 41.3917 62.7586C41.3917 63.9013 42.318 64.8276 43.4607 64.8276Z" fill="#EF7BC3"/>
<path d="M18.6331 77.2414C19.7757 77.2414 20.702 76.3151 20.702 75.1724C20.702 74.0298 19.7757 73.1034 18.6331 73.1034C17.4904 73.1034 16.5641 74.0298 16.5641 75.1724C16.5641 76.3151 17.4904 77.2414 18.6331 77.2414Z" fill="#EF7BC3"/>
<path d="M7.59863 48.2759C8.74129 48.2759 9.66759 47.3495 9.66759 46.2069C9.66759 45.0642 8.74129 44.1379 7.59863 44.1379C6.45597 44.1379 5.52966 45.0642 5.52966 46.2069C5.52966 47.3495 6.45597 48.2759 7.59863 48.2759Z" fill="#EF7BC3"/>
<path d="M6.21936 19.3103C7.36201 19.3103 8.28832 18.384 8.28832 17.2414C8.28832 16.0987 7.36201 15.1724 6.21936 15.1724C5.0767 15.1724 4.15039 16.0987 4.15039 17.2414C4.15039 18.384 5.0767 19.3103 6.21936 19.3103Z" fill="#EF7BC3"/>
<path d="M32.4261 8.27586C33.5688 8.27586 34.4951 7.34956 34.4951 6.2069C34.4951 5.06424 33.5688 4.13793 32.4261 4.13793C31.2835 4.13793 30.3572 5.06424 30.3572 6.2069C30.3572 7.34956 31.2835 8.27586 32.4261 8.27586Z" fill="#EF7BC3"/>
<path d="M65.5297 15.1724C66.6723 15.1724 67.5986 14.2461 67.5986 13.1035C67.5986 11.9608 66.6723 11.0345 65.5297 11.0345C64.387 11.0345 63.4607 11.9608 63.4607 13.1035C63.4607 14.2461 64.387 15.1724 65.5297 15.1724Z" fill="#EF7BC3"/>
<path d="M69.6676 77.2414C70.8103 77.2414 71.7366 76.3151 71.7366 75.1724C71.7366 74.0298 70.8103 73.1034 69.6676 73.1034C68.5249 73.1034 67.5986 74.0298 67.5986 75.1724C67.5986 76.3151 68.5249 77.2414 69.6676 77.2414Z" fill="#EF7BC3"/>
<path d="M75.1848 40C76.3275 40 77.2538 39.0737 77.2538 37.931C77.2538 36.7884 76.3275 35.8621 75.1848 35.8621C74.0422 35.8621 73.1158 36.7884 73.1158 37.931C73.1158 39.0737 74.0422 40 75.1848 40Z" fill="#EF7BC3"/>
<path d="M44.84 77.2414C45.9826 77.2414 46.9089 76.3151 46.9089 75.1724C46.9089 74.0298 45.9826 73.1034 44.84 73.1034C43.6973 73.1034 42.771 74.0298 42.771 75.1724C42.771 76.3151 43.6973 77.2414 44.84 77.2414Z" fill="#EF7BC3"/>
<path d="M55.8745 42.7586C57.0172 42.7586 57.9435 41.8323 57.9435 40.6897C57.9435 39.547 57.0172 38.6207 55.8745 38.6207C54.7318 38.6207 53.8055 39.547 53.8055 40.6897C53.8055 41.8323 54.7318 42.7586 55.8745 42.7586Z" fill="#EF7BC3"/>
<path d="M31.0469 42.7586C32.1895 42.7586 33.1158 41.8323 33.1158 40.6897C33.1158 39.547 32.1895 38.6207 31.0469 38.6207C29.9042 38.6207 28.9779 39.547 28.9779 40.6897C28.9779 41.8323 29.9042 42.7586 31.0469 42.7586Z" fill="#EF7BC3"/>
</svg>
